<!-- Generator: Adobe Illustrator 21.1.0, SVG Export Plug-In  -->
<svg version="1.1"
	 xmlns="http://www.w3.org/2000/svg" xmlns:xlink="http://www.w3.org/1999/xlink" xmlns:a="http://ns.adobe.com/AdobeSVGViewerExtensions/3.0/"
	 x="0px" y="0px" width="54.469px" height="25.49px" viewBox="0 0 54.469 25.49" style="enable-background:new 0 0 54.469 25.49;"
	 xml:space="preserve">
<style type="text/css">
	.st0{fill:#231F20;}
	.st1{fill:none;}
</style>
<defs>
</defs>
<g>
	<path class="st0" d="M7.065,10.483c0-1.948-1.585-3.533-3.533-3.533S0,8.535,0,10.483c0,0.001,0,0.002,0,0.002v2.527
		c0,0,0,0.002,0,0.002c0,1.948,1.585,3.533,3.533,3.533s3.533-1.585,3.533-3.533l0-2.53C7.065,10.484,7.065,10.483,7.065,10.483z
		 M3.533,14.548c-0.845,0-1.532-0.687-1.533-1.531l0-0.002v-2.533c0,0,0-0.001,0-0.001C2.001,9.636,2.688,8.95,3.533,8.95
		c0.845,0,1.532,0.687,1.533,1.531c0,0.001,0,0.001,0,0.002l0,2.532C5.065,13.86,4.378,14.548,3.533,14.548z"/>
	<g>
		<g>
			<g>
				<path class="st0" d="M35.765,16.548c-0.552,0-1-0.448-1-1V7.95c0-0.552,0.448-1,1-1s1,0.448,1,1v7.598
					C36.765,16.1,36.317,16.548,35.765,16.548z"/>
			</g>
			<g>
				<path class="st0" d="M35.775,3.884h-0.01c-0.552,0-1-0.448-1-1s0.448-1,1-1s1.005,0.448,1.005,1S36.328,3.884,35.775,3.884z"/>
			</g>
		</g>
		<path class="st0" d="M21.332,6.95c-0.994,0-1.89,0.416-2.533,1.08c-0.643-0.663-1.539-1.08-2.533-1.08
			c-0.624,0-1.202,0.177-1.711,0.462C14.377,7.14,14.084,6.95,13.735,6.95c-0.552,0-1,0.448-1,1v7.598c0,0.552,0.448,1,1,1
			s1-0.448,1-1v-5.065c0-0.845,0.688-1.533,1.532-1.533c0.845,0,1.533,0.688,1.533,1.533v5.065c0,0.552,0.448,1,1,1s1-0.448,1-1
			v-5.065c0-0.845,0.688-1.533,1.533-1.533s1.533,0.688,1.533,1.533v5.065c0,0.552,0.448,1,1,1s1-0.448,1-1v-5.065
			C24.865,8.535,23.28,6.95,21.332,6.95z"/>
		<path class="st0" d="M29.815,6.95c-0.624,0-1.202,0.177-1.712,0.462C27.925,7.14,27.632,6.95,27.282,6.95c-0.552,0-1,0.448-1,1
			v7.598c0,0.552,0.448,1,1,1s1-0.448,1-1v-5.065c0-0.845,0.688-1.533,1.533-1.533s1.533,0.688,1.533,1.533v5.065
			c0,0.552,0.448,1,1,1c0.552,0,1-0.448,1-1v-5.065C33.348,8.535,31.763,6.95,29.815,6.95z"/>
		<path class="st0" d="M41.721,6.951c-1.947,0-3.531,1.584-3.533,3.531l0,0.001v1.264c0,0.001,0,0.002,0,0.003
			c0,0.001,0,0.002,0,0.002v1.261c0,0.001,0,0.002,0,0.002c0,1.948,1.585,3.532,3.533,3.532c0.552,0,1-0.448,1-1
			c0-0.552-0.448-1-1-1c-0.845,0-1.532-0.687-1.533-1.531l0-0.002v-0.266h4.065c0.552,0,1-0.448,1-1v-1.266
			C45.254,8.536,43.669,6.951,41.721,6.951z M43.254,10.749h-3.065v-0.266c0-0.845,0.688-1.533,1.533-1.533s1.533,0.688,1.533,1.533
			V10.749z"/>
	</g>
</g>
<rect class="st1" width="54.469" height="25.49"/>
</svg>