<!-- Generator: Adobe Illustrator 21.1.0, SVG Export Plug-In  -->
<svg version="1.1"
	 xmlns="http://www.w3.org/2000/svg" xmlns:xlink="http://www.w3.org/1999/xlink" xmlns:a="http://ns.adobe.com/AdobeSVGViewerExtensions/3.0/"
	 x="0px" y="0px" width="623.312px" height="110.443px" viewBox="0 0 623.312 110.443"
	 style="enable-background:new 0 0 623.312 110.443;" xml:space="preserve">
<style type="text/css">
	.st0{fill:none;}
	.st1{fill:#231F20;}
</style>
<defs>
</defs>
<rect class="st0" width="623.312" height="110.443"/>
<path class="st1" d="M339.703,87.076l-1.9-1.9c0.297-2.305-0.429-4.717-2.196-6.484l-3.284-3.283l21.687-21.687
	c3.307-3.307,3.307-8.687,0-11.994c-3.306-3.306-8.687-3.306-11.994,0l-3.93,3.93c-0.345-1.497-1.09-2.92-2.254-4.084
	c-1.836-1.836-4.311-2.652-6.716-2.45c0.203-2.404-0.613-4.879-2.449-6.715c-1.164-1.164-2.587-1.909-4.084-2.254l3.93-3.93
	c3.307-3.307,3.307-8.687,0-11.994c-3.306-3.306-8.687-3.306-11.994,0l-21.733,21.733c-2.886-2.675-6.046-5.041-9.455-7.01
	l-6.328-3.655c-1.994-1.151-4.395-1.152-6.363-0.133l-0.405-0.405c-0.781-0.781-2.047-0.781-2.828,0s-0.781,2.047,0,2.828
	l0.405,0.405c-1.018,1.969-1.018,4.37,0.134,6.363l3.656,6.328c1.969,3.408,4.335,6.569,7.01,9.455l-0.296,0.296
	c-10.888,10.888-10.888,28.603,0,39.491c10.888,10.888,28.604,10.888,39.491,0l0.25-0.25l3.284,3.283
	c1.766,1.766,4.179,2.493,6.484,2.196l1.9,1.9c2.183,2.183,5.734,2.182,7.917,0l2.063-2.063
	C341.886,92.809,341.886,89.258,339.703,87.076z M344.846,44.556c1.747-1.747,4.59-1.747,6.337,0c1.747,1.747,1.747,4.59,0,6.337
	L329.496,72.58l-6.337-6.337l12.675-12.675L344.846,44.556z M326.667,44.402c1.747-1.747,4.59-1.747,6.337,0
	c1.747,1.747,1.747,4.59,0,6.337L320.33,63.414l-4.197-4.197c-0.015-1.193-0.284-2.381-0.798-3.484l8.753-8.753L326.667,44.402z
	 M323.839,35.237c1.747,1.747,1.747,4.59,0,6.337l-2.579,2.579l-8.387,8.387l-6.337-6.337l10.966-10.966
	C319.249,33.489,322.092,33.49,323.839,35.237z M323.685,17.059c1.747,1.747,1.747,4.59,0,6.337l-9.012,9.012l-10.966,10.966
	l-6.337-6.337l19.979-19.979C319.096,15.312,321.938,15.312,323.685,17.059z M275.066,38.684l-3.656-6.328
	c-0.595-1.029-0.423-2.335,0.418-3.176c0.84-0.84,2.146-1.012,3.175-0.417l6.328,3.655c3.106,1.793,5.989,3.945,8.627,6.374
	l-8.519,8.519C279.011,44.673,276.859,41.789,275.066,38.684z M314.978,87.098c-9.328,9.328-24.506,9.328-33.834,0
	c-9.328-9.328-9.328-24.506,0-33.834l13.398-13.398l16.288,16.288c1.747,1.747,1.747,4.59,0,6.338
	c-1.747,1.747-4.59,1.747-6.348-0.011l-8.603-8.471c-0.785-0.773-2.047-0.765-2.823,0.017s-0.773,2.044,0.006,2.823
	c4.621,4.621,6.268,11.367,4.298,17.606c-0.232,0.736-0.017,1.507,0.494,2.018c0.22,0.22,0.494,0.391,0.811,0.491
	c1.053,0.332,2.177-0.252,2.509-1.305c0.239-0.756,0.428-1.519,0.581-2.284l13.473,13.473L314.978,87.098z M329.48,90.132
	c-1.464,1.464-3.847,1.465-5.312,0L302.15,68.114c-0.043-0.873-0.137-1.742-0.286-2.6c3.321,3.111,8.553,3.047,11.794-0.194
	c0.505-0.505,0.923-1.061,1.273-1.648l3.817,3.817c0.049,0.062,0.093,0.127,0.151,0.185c0.057,0.057,0.122,0.102,0.185,0.151
	l13.695,13.695c1.465,1.465,1.464,3.847,0,5.312L329.48,90.132z M334.812,94.227c-0.623,0.623-1.637,0.623-2.26,0l-0.781-0.781
	c0.184-0.153,0.365-0.313,0.538-0.486l3.3-3.3c0.173-0.173,0.333-0.353,0.486-0.538l0.781,0.781c0.623,0.623,0.623,1.637,0,2.26
	L334.812,94.227z"/>
<g>
	<path class="st1" d="M409.908,47.058c-5.487,0-9.951,4.463-9.951,9.949c0,0.005,0.003,0.009,0.003,0.014v7.106
		c0,0.005-0.003,0.009-0.003,0.014c0,5.486,4.464,9.949,9.951,9.949c5.485,0,9.949-4.463,9.949-9.949v-7.133
		C419.857,51.521,415.393,47.058,409.908,47.058z M409.908,68.456c-2.38,0-4.314-1.932-4.318-4.308c0-0.004,0.002-0.006,0.002-0.01
		v-7.132c0-0.003-0.002-0.006-0.002-0.009c0.006-2.374,1.939-4.306,4.317-4.306c2.379,0,4.316,1.936,4.316,4.316v7.133
		C414.224,66.519,412.288,68.456,409.908,68.456z"/>
	<path class="st1" d="M432.157,52.692c1.152,0,2.236,0.448,3.05,1.262c1.1,1.1,2.883,1.1,3.983,0c1.1-1.1,1.1-2.883,0-3.983
		c-1.879-1.879-4.376-2.913-7.033-2.913c-5.482,0-9.945,4.461-9.948,9.944c0,0.001-0.001,0.002-0.001,0.003v7.133
		c0,5.486,4.464,9.949,9.949,9.949c2.657,0,5.154-1.033,7.033-2.91c1.1-1.099,1.1-2.883,0-3.983c-1.1-1.103-2.883-1.1-3.983-0.003
		c-0.814,0.814-1.898,1.262-3.05,1.262c-2.379,0-4.316-1.936-4.316-4.316v-7.131C427.842,54.629,429.778,52.692,432.157,52.692z"/>
	<path class="st1" d="M394.789,47.065c-1.757,0-3.385,0.497-4.82,1.3c-0.503-0.765-1.327-1.3-2.312-1.3
		c-1.554,0-2.817,1.261-2.817,2.817l-0.003,21.391c0,1.555,1.26,2.817,2.817,2.817c1.554,0,2.817-1.261,2.817-2.817l0.002-14.253
		c0-0.002,0.001-0.003,0.001-0.004c0-2.381,1.936-4.317,4.316-4.317c1.557,0,2.817-1.261,2.817-2.817
		C397.605,48.326,396.346,47.065,394.789,47.065z"/>
	<path class="st1" d="M449.45,60.574l9.767-8.584c1.169-1.026,1.282-2.806,0.256-3.974c-1.026-1.169-2.808-1.282-3.974-0.256
		L448,54.349v-4.476c0-1.555-1.26-2.817-2.817-2.817c-1.557,0-2.816,1.261-2.816,2.817v21.399c0,1.555,1.26,2.817,2.816,2.817
		c1.557,0,2.817-1.261,2.817-2.817v-4.474l7.498,6.589c0.536,0.47,1.199,0.701,1.859,0.701c0.781,0,1.56-0.323,2.115-0.957
		c1.029-1.169,0.913-2.949-0.256-3.974L449.45,60.574z"/>
	<path class="st1" d="M471.842,58.001c-2.442-1.095-3.683-2.029-3.683-2.778c0-1.397,1.136-2.533,2.53-2.533
		c1.155,0.001,2.239,0.45,3.053,1.264c1.1,1.097,2.883,1.1,3.983-0.003c1.1-1.1,1.1-2.884,0-3.983
		c-1.879-1.876-4.376-2.91-7.033-2.911c-4.503,0-8.166,3.664-8.166,8.166c0,4.78,4.915,6.979,7.017,7.919
		c2.442,1.095,3.68,2.03,3.68,2.779c0,1.396-1.136,2.533-2.53,2.535c-1.152,0-2.236-0.448-3.05-1.262
		c-1.1-1.097-2.883-1.1-3.983,0.003c-1.1,1.1-1.1,2.884,0,3.983c1.879,1.874,4.371,2.907,7.019,2.907c0.005,0,0.008,0,0.014,0
		c4.503,0,8.164-3.662,8.164-8.165C478.856,61.143,473.943,58.942,471.842,58.001z"/>
</g>
<g>
	<g>
		<path class="st1" d="M176.041,47.057c-1.553,0-3.005,0.389-4.316,1.026v-8.912c0-1.555-1.26-2.817-2.817-2.817
			s-2.817,1.261-2.817,2.817v32.101c0,1.555,1.26,2.817,2.817,2.817s2.817-1.261,2.817-2.817V57.007
			c0-2.381,1.936-4.317,4.316-4.317c2.382,0,4.318,1.936,4.318,4.317v14.266c0,1.555,1.26,2.817,2.817,2.817
			s2.817-1.261,2.817-2.817V57.007C185.992,51.521,181.528,47.057,176.041,47.057z"/>
		<path class="st1" d="M111.382,47.057c-2.799,0-5.323,1.172-7.132,3.041c-1.81-1.868-4.334-3.041-7.135-3.041
			c-1.757,0-3.385,0.497-4.82,1.3c-0.503-0.765-1.327-1.3-2.312-1.3c-1.557,0-2.817,1.261-2.817,2.817v21.399
			c0,1.555,1.26,2.817,2.817,2.817c1.557,0,2.817-1.261,2.817-2.817V57.007c0-2.381,1.936-4.317,4.316-4.317
			c2.382,0,4.318,1.936,4.318,4.317v14.266c0,1.555,1.26,2.817,2.817,2.817c1.557,0,2.817-1.261,2.817-2.817V57.007
			c0-2.381,1.936-4.317,4.316-4.317c2.382,0,4.318,1.936,4.318,4.317v14.266c0,1.555,1.26,2.817,2.817,2.817
			c1.557,0,2.817-1.261,2.817-2.817V57.007C121.333,51.521,116.869,47.057,111.382,47.057z"/>
		<path class="st1" d="M140.765,47.057c-0.985,0-1.809,0.535-2.312,1.3c-1.434-0.803-3.062-1.3-4.82-1.3
			c-5.487,0-9.951,4.464-9.951,9.95c0,0.005,0.003,0.009,0.003,0.014v7.105c0,0.005-0.003,0.009-0.003,0.014
			c0,5.486,4.464,9.95,9.951,9.95c1.757,0,3.385-0.497,4.82-1.3c0.503,0.765,1.327,1.3,2.312,1.3c1.557,0,2.817-1.261,2.817-2.817
			V49.873C143.582,48.318,142.322,47.057,140.765,47.057z M133.633,68.456c-2.379,0-4.313-1.932-4.318-4.309
			c0-0.003,0.002-0.006,0.002-0.01v-7.133c0-0.003-0.002-0.005-0.002-0.008c0.006-2.375,1.939-4.306,4.317-4.306
			c2.379,0,4.316,1.936,4.316,4.317v7.132C137.949,66.519,136.013,68.456,133.633,68.456z"/>
		<path class="st1" d="M198.292,47.057c-5.487,0-9.951,4.464-9.951,9.95c0,0.005,0.003,0.009,0.003,0.014v7.105
			c0,0.005-0.003,0.009-0.003,0.014c0,5.486,4.464,9.95,9.951,9.95c5.485,0,9.949-4.464,9.949-9.95v-7.132
			C208.241,51.521,203.777,47.057,198.292,47.057z M198.292,68.456c-2.379,0-4.313-1.932-4.318-4.309
			c0-0.003,0.002-0.006,0.002-0.01v-7.133c0-0.003-0.002-0.005-0.002-0.008c0.006-2.375,1.939-4.306,4.317-4.306
			c2.379,0,4.316,1.936,4.316,4.317v7.132C202.608,66.519,200.672,68.456,198.292,68.456z"/>
		<path class="st1" d="M155.882,52.69c1.152,0,2.236,0.448,3.05,1.262c1.1,1.1,2.883,1.1,3.983,0s1.1-2.883,0-3.983
			c-1.879-1.879-4.376-2.913-7.033-2.913c-5.482,0-9.945,4.461-9.948,9.944c0,0.001-0.001,0.002-0.001,0.003v7.133
			c0,5.486,4.464,9.949,9.949,9.949c2.657,0,5.154-1.033,7.033-2.91c1.1-1.099,1.1-2.883,0-3.983c-1.1-1.103-2.883-1.1-3.983-0.003
			c-0.814,0.814-1.898,1.262-3.05,1.262c-2.379,0-4.316-1.936-4.316-4.316v-7.131C151.567,54.626,153.503,52.69,155.882,52.69z"/>
		<path class="st1" d="M220.541,68.456c-2.379,0-4.316-1.936-4.316-4.317V39.171c0-1.555-1.26-2.817-2.817-2.817
			s-2.817,1.261-2.817,2.817v24.968c0,5.486,4.464,9.95,9.949,9.95c1.557,0,2.817-1.261,2.817-2.817S222.098,68.456,220.541,68.456z
			"/>
		<path class="st1" d="M235.658,68.456c-2.379,0-4.316-1.936-4.316-4.317V39.171c0-1.555-1.26-2.817-2.817-2.817
			c-1.557,0-2.817,1.261-2.817,2.817v24.968c0,5.486,4.464,9.95,9.949,9.95c1.557,0,2.817-1.261,2.817-2.817
			S237.215,68.456,235.658,68.456z"/>
	</g>
	<g>
		<path class="st1" d="M52.702,47.057c-2.799,0-5.323,1.172-7.132,3.041c-1.81-1.868-4.334-3.041-7.135-3.041
			c-1.757,0-3.385,0.497-4.82,1.3c-0.503-0.765-1.327-1.3-2.312-1.3c-1.557,0-2.817,1.261-2.817,2.817v21.399
			c0,1.555,1.26,2.817,2.817,2.817s2.817-1.261,2.817-2.817V57.007c0-2.381,1.936-4.317,4.316-4.317
			c2.382,0,4.318,1.936,4.318,4.317v14.266c0,1.555,1.26,2.817,2.817,2.817s2.817-1.261,2.817-2.817V57.007
			c0-2.381,1.936-4.317,4.316-4.317c2.382,0,4.318,1.936,4.318,4.317v14.266c0,1.555,1.26,2.817,2.817,2.817
			s2.817-1.261,2.817-2.817V57.007C62.654,51.521,58.19,47.057,52.702,47.057z"/>
		<path class="st1" d="M74.954,47.061c-1.757,0-3.385,0.497-4.82,1.3c-0.503-0.765-1.327-1.3-2.312-1.3
			c-1.554,0-2.817,1.261-2.817,2.817l-0.003,21.391c0,1.555,1.26,2.817,2.817,2.817c1.554,0,2.817-1.261,2.817-2.817l0.002-14.253
			c0-0.002,0.001-0.003,0.001-0.004c0-2.381,1.936-4.317,4.316-4.317c1.557,0,2.817-1.261,2.817-2.817
			C77.77,48.322,76.511,47.061,74.954,47.061z"/>
	</g>
</g>
</svg>