<!-- Generator: Adobe Illustrator 21.1.0, SVG Export Plug-In  -->
<svg version="1.1"
	 xmlns="http://www.w3.org/2000/svg" xmlns:xlink="http://www.w3.org/1999/xlink" xmlns:a="http://ns.adobe.com/AdobeSVGViewerExtensions/3.0/"
	 x="0px" y="0px" width="24.921px" height="14.663px" viewBox="0 0 24.921 14.663"
	 style="enable-background:new 0 0 24.921 14.663;" xml:space="preserve">
<style type="text/css">
	.st0{fill:#231F20;}
</style>
<defs>
</defs>
<g>
	<g>
		<path class="st0" d="M1,14.663c-0.552,0-1-0.448-1-1V6.065c0-0.552,0.448-1,1-1s1,0.448,1,1v7.598C2,14.215,1.552,14.663,1,14.663
			z"/>
	</g>
	<g>
		<path class="st0" d="M1.01,2H1C0.448,2,0,1.552,0,1s0.448-1,1-1s1.005,0.448,1.005,1S1.562,2,1.01,2z"/>
	</g>
</g>
<path class="st0" d="M6.955,5.065c-0.624,0-1.202,0.177-1.712,0.462C5.065,5.256,4.772,5.065,4.423,5.065c-0.552,0-1,0.448-1,1
	v7.598c0,0.552,0.448,1,1,1s1-0.448,1-1V8.598c0-0.845,0.688-1.533,1.533-1.533s1.533,0.688,1.533,1.533v5.065c0,0.552,0.448,1,1,1
	s1-0.448,1-1V8.598C10.488,6.65,8.903,5.065,6.955,5.065z"/>
<path class="st0" d="M24.921,8.598c0-1.948-1.585-3.533-3.533-3.533s-3.533,1.585-3.533,3.533c0,0.001,0,0.002,0,0.002v2.527
	c0,0,0,0.002,0,0.002c0,1.948,1.585,3.533,3.533,3.533s3.533-1.585,3.533-3.533l0-2.53C24.92,8.6,24.921,8.599,24.921,8.598z
	 M21.388,12.663c-0.845,0-1.532-0.687-1.533-1.531l0-0.002V8.597c0,0,0-0.001,0-0.001c0.001-0.844,0.688-1.531,1.532-1.531
	c0.845,0,1.532,0.687,1.533,1.531c0,0.001,0,0.001,0,0.002l0,2.532C22.921,11.976,22.233,12.663,21.388,12.663z"/>
<path class="st0" d="M15.438,7.598h-1.533V3.533C13.905,2.688,14.593,2,15.438,2c0.552,0,1-0.448,1-1s-0.448-1-1-1
	c-1.948,0-3.533,1.584-3.533,3.532v10.13c0,0.552,0.448,1,1,1s1-0.448,1-1V9.598h1.533c0.552,0,1-0.448,1-1
	S15.99,7.598,15.438,7.598z"/>
</svg>