<!-- Generator: Adobe Illustrator 21.1.0, SVG Export Plug-In  -->
<svg version="1.1"
	 xmlns="http://www.w3.org/2000/svg" xmlns:xlink="http://www.w3.org/1999/xlink" xmlns:a="http://ns.adobe.com/AdobeSVGViewerExtensions/3.0/"
	 x="0px" y="0px" width="83.577px" height="25.49px" viewBox="0 0 83.577 25.49" style="enable-background:new 0 0 83.577 25.49;"
	 xml:space="preserve">
<style type="text/css">
	.st0{fill:#231F20;}
	.st1{fill:none;stroke:#231F20;stroke-width:2;stroke-linecap:round;stroke-miterlimit:10;}
	.st2{fill:none;}
</style>
<defs>
</defs>
<g>
	<g>
		<path class="st0" d="M60.736,6.949c-0.349,0-0.642,0.19-0.821,0.462c-0.509-0.285-1.087-0.462-1.711-0.462
			c-1.948,0-3.533,1.585-3.533,3.533c0,0.001,0,0.002,0,0.002v2.527c0,0,0,0.002,0,0.002c0,1.948,1.585,3.533,3.533,3.533
			c0.624,0,1.202-0.177,1.711-0.462c0.179,0.272,0.471,0.462,0.821,0.462c0.552,0,1-0.448,1-1V7.949
			C61.736,7.397,61.288,6.949,60.736,6.949z M58.204,14.547c-0.845,0-1.532-0.687-1.533-1.531l0-0.002v-2.533c0,0,0-0.001,0-0.001
			c0.001-0.844,0.688-1.531,1.532-1.531c0.845,0,1.532,0.688,1.532,1.533v2.532C59.736,13.859,59.049,14.547,58.204,14.547z"/>
		<path class="st0" d="M45.512,10.484c0-0.001,0-0.002,0-0.002c0-1.948-1.585-3.533-3.533-3.533c-0.624,0-1.202,0.177-1.712,0.462
			c-0.179-0.272-0.471-0.462-0.821-0.462c-0.552,0-1,0.448-1,1v12.662c0,0.552,0.448,1,1,1s1-0.448,1-1v-4.429
			c0.466,0.226,0.981,0.365,1.533,0.365c1.948,0,3.533-1.585,3.533-3.533c0-0.001,0-0.002,0-0.002V10.484z M41.98,14.547
			c-0.845,0-1.533-0.688-1.533-1.533v-2.532c0-0.845,0.688-1.533,1.533-1.533c0.845,0,1.532,0.687,1.533,1.532
			c0,0.001,0,0.001,0,0.002v2.532l0,0.001C43.511,13.86,42.825,14.547,41.98,14.547z"/>
		<path class="st0" d="M69.185,14.099c-0.39-0.391-1.023-0.392-1.415-0.001c-0.29,0.29-0.675,0.449-1.084,0.449
			c-0.845,0-1.532-0.687-1.533-1.531l0-0.002v-2.533c0,0,0-0.001,0-0.001c0.001-0.844,0.688-1.531,1.532-1.531
			c0.409,0,0.794,0.159,1.084,0.449c0.39,0.39,1.023,0.391,1.414-0.001c0.39-0.391,0.39-1.024-0.001-1.414
			c-0.667-0.667-1.554-1.034-2.497-1.034c-1.948,0-3.533,1.585-3.533,3.533c0,0.001,0,0.002,0,0.002v2.527c0,0.001,0,0.002,0,0.002
			c0,1.948,1.585,3.532,3.533,3.532c0.943,0,1.83-0.367,2.497-1.033C69.574,15.123,69.575,14.49,69.185,14.099z"/>
		<path class="st0" d="M74.427,6.949c-1.947,0-3.531,1.584-3.533,3.531l0,0.001v1.264c0,0.001,0,0.002,0,0.003
			c0,0.001,0,0.002,0,0.002v1.261c0,0.001,0,0.002,0,0.002c0,1.948,1.585,3.532,3.533,3.532c0.552,0,1-0.448,1-1
			c0-0.552-0.448-1-1-1c-0.845,0-1.532-0.687-1.533-1.531l0-0.002v-0.266h4.065c0.552,0,1-0.448,1-1v-1.266
			C77.96,8.534,76.375,6.949,74.427,6.949z M75.96,10.747h-3.065v-0.266c0-0.845,0.688-1.533,1.533-1.533s1.533,0.688,1.533,1.533
			V10.747z"/>
		<path class="st0" d="M52.96,7.983c-0.667-0.667-1.554-1.034-2.497-1.034c-0.624,0-1.203,0.177-1.712,0.462
			c-0.179-0.272-0.472-0.462-0.821-0.462c-0.552,0-1,0.448-1,1l0,7.595c0,0.552,0.448,1,1,1s1-0.448,1-1l0-5.059
			c0-0.001,0.001-0.002,0.001-0.003c0-0.845,0.688-1.533,1.533-1.533c0.409,0,0.793,0.159,1.083,0.449
			c0.39,0.39,1.023,0.391,1.414-0.001C53.352,9.006,53.352,8.373,52.96,7.983z"/>
	</g>
	<g>
		<path class="st0" d="M8.598,6.949c-0.994,0-1.89,0.416-2.533,1.08c-0.643-0.663-1.539-1.08-2.533-1.08
			c-0.624,0-1.202,0.177-1.711,0.462C1.642,7.139,1.349,6.949,1,6.949c-0.552,0-1,0.448-1,1v7.598c0,0.552,0.448,1,1,1s1-0.448,1-1
			v-5.065c0-0.845,0.688-1.533,1.532-1.533c0.845,0,1.533,0.688,1.533,1.533v5.065c0,0.552,0.448,1,1,1s1-0.448,1-1v-5.065
			c0-0.845,0.688-1.533,1.533-1.533s1.533,0.688,1.533,1.533v5.065c0,0.552,0.448,1,1,1s1-0.448,1-1v-5.065
			C12.13,8.534,10.545,6.949,8.598,6.949z"/>
		<path class="st0" d="M20.613,10.482c0-1.948-1.585-3.533-3.533-3.533s-3.533,1.585-3.533,3.533c0,0.001,0,0.002,0,0.002v2.527
			c0,0,0,0.002,0,0.002c0,1.948,1.585,3.533,3.533,3.533s3.533-1.585,3.533-3.533l0-2.53C20.613,10.483,20.613,10.483,20.613,10.482
			z M17.08,14.547c-0.845,0-1.532-0.687-1.533-1.531l0-0.002v-2.533c0,0,0-0.001,0-0.001c0.001-0.844,0.688-1.531,1.532-1.531
			c0.845,0,1.532,0.687,1.533,1.531c0,0.001,0,0.001,0,0.002l0,2.532C18.613,13.859,17.926,14.547,17.08,14.547z"/>
		<path class="st0" d="M29.245,6.949c-1.947,0-3.531,1.584-3.533,3.531l0,0.001v1.264c0,0.001,0,0.002,0,0.003
			c0,0.001,0,0.002,0,0.002v1.261c0,0.001,0,0.002,0,0.002c0,1.948,1.585,3.532,3.533,3.532c0.552,0,1-0.448,1-1
			c0-0.552-0.448-1-1-1c-0.845,0-1.532-0.687-1.533-1.531l0-0.002v-0.266h4.065c0.552,0,1-0.448,1-1v-1.266
			C32.778,8.534,31.193,6.949,29.245,6.949z M30.778,10.747h-3.065v-0.266c0-0.845,0.688-1.533,1.533-1.533s1.533,0.688,1.533,1.533
			V10.747z"/>
		<g>
			<path class="st0" d="M20.763,19.611c0.845,0,1.532-0.688,1.532-1.533V7.948c0-0.552,0.448-1,1-1s1,0.448,1,1v10.13
				c0,1.948-1.584,3.533-3.532,3.533c-0.552,0-1-0.448-1-1S20.21,19.611,20.763,19.611z"/>
			<g>
				<g>
					<g>
						<path class="st0" d="M23.3,3.884h-0.01c-0.552,0-1-0.448-1-1s0.448-1,1-1s1.005,0.448,1.005,1S23.852,3.884,23.3,3.884z"/>
					</g>
				</g>
				<g>
					<path class="st1" d="M23.295,18.08"/>
				</g>
			</g>
		</g>
	</g>
</g>
<rect class="st2" width="83.577" height="25.49"/>
</svg>