<!-- Generator: Adobe Illustrator 21.1.0, SVG Export Plug-In  -->
<svg version="1.1"
	 xmlns="http://www.w3.org/2000/svg" xmlns:xlink="http://www.w3.org/1999/xlink" xmlns:a="http://ns.adobe.com/AdobeSVGViewerExtensions/3.0/"
	 x="0px" y="0px" width="55.051px" height="14.663px" viewBox="0 0 55.051 14.663"
	 style="enable-background:new 0 0 55.051 14.663;" xml:space="preserve">
<style type="text/css">
	.st0{fill:#231F20;}
</style>
<defs>
</defs>
<g>
	<g>
		<path class="st0" d="M37.08,14.663c-0.552,0-1-0.448-1-1V6.065c0-0.552,0.448-1,1-1s1,0.448,1,1v7.598
			C38.08,14.215,37.632,14.663,37.08,14.663z"/>
	</g>
	<g>
		<path class="st0" d="M37.09,2h-0.01c-0.552,0-1-0.448-1-1s0.448-1,1-1s1.005,0.448,1.005,1S37.642,2,37.09,2z"/>
	</g>
</g>
<path class="st0" d="M51.518,5.065c-0.624,0-1.202,0.177-1.712,0.462c-0.179-0.272-0.471-0.462-0.821-0.462c-0.552,0-1,0.448-1,1
	v7.598c0,0.552,0.448,1,1,1s1-0.448,1-1V8.598c0-0.845,0.688-1.533,1.533-1.533s1.533,0.688,1.533,1.533v5.065c0,0.552,0.448,1,1,1
	s1-0.448,1-1V8.598C55.051,6.65,53.466,5.065,51.518,5.065z"/>
<path class="st0" d="M27.713,5.065c-0.552,0-1,0.448-1,1v5.065c0,0.845-0.688,1.533-1.533,1.533c-0.845,0-1.532-0.688-1.532-1.533
	V6.065c0-0.552-0.448-1-1-1s-1,0.448-1,1v5.065c0,1.948,1.584,3.533,3.532,3.533c0.624,0,1.202-0.177,1.712-0.462
	c0.179,0.272,0.471,0.462,0.821,0.462c0.552,0,1-0.448,1-1V6.065C28.713,5.513,28.265,5.065,27.713,5.065z"/>
<path class="st0" d="M14.281,8.598c0-1.948-1.585-3.533-3.533-3.533S7.216,6.65,7.216,8.598c0,0.001,0,0.002,0,0.002v2.527
	c0,0.001,0,0.002,0,0.002c0,1.948,1.585,3.533,3.533,3.533s3.533-1.585,3.533-3.533l0-2.53C14.281,8.6,14.281,8.599,14.281,8.598z
	 M10.748,12.663c-0.845,0-1.532-0.687-1.533-1.531c0-0.001,0-0.001,0-0.002V8.597c0,0,0-0.001,0-0.001
	c0.001-0.844,0.688-1.53,1.532-1.53c0.845,0,1.532,0.687,1.533,1.531c0,0.001,0,0.001,0,0.002l0,2.532
	C12.281,11.976,11.594,12.663,10.748,12.663z"/>
<path class="st0" d="M46.568,8.598c0-1.948-1.585-3.533-3.533-3.533s-3.533,1.585-3.533,3.533c0,0.001,0,0.002,0,0.002v2.527
	c0,0.001,0,0.002,0,0.002c0,1.948,1.585,3.533,3.533,3.533s3.533-1.585,3.533-3.533l0-2.53C46.567,8.6,46.568,8.599,46.568,8.598z
	 M43.035,12.663c-0.845,0-1.532-0.687-1.533-1.531c0-0.001,0-0.001,0-0.002V8.597c0,0,0-0.001,0-0.001
	c0.001-0.844,0.688-1.53,1.532-1.53c0.845,0,1.532,0.687,1.533,1.531c0,0.001,0,0.001,0,0.002l0,2.532
	C44.568,11.976,43.88,12.663,43.035,12.663z"/>
<path class="st0" d="M19.231,12.663c-0.845,0-1.532-0.688-1.532-1.533V1c0-0.552-0.448-1-1-1s-1,0.448-1,1v10.13
	c0,1.948,1.584,3.533,3.532,3.533c0.552,0,1-0.448,1-1S19.783,12.663,19.231,12.663z"/>
<path class="st0" d="M33.662,12.663c-0.845,0-1.532-0.688-1.532-1.533V7.065h1.532c0.552,0,1-0.448,1-1s-0.448-1-1-1H32.13V1
	c0-0.552-0.448-1-1-1s-1,0.448-1,1v10.13c0,1.948,1.584,3.533,3.532,3.533c0.552,0,1-0.448,1-1S34.215,12.663,33.662,12.663z"/>
<g>
	<path class="st0" d="M2.895,14.663c-0.94,0-1.826-0.367-2.492-1.033c-0.391-0.391-0.391-1.023,0-1.414s1.023-0.391,1.414,0
		c0.289,0.289,0.674,0.448,1.083,0.448c0.495,0,0.899-0.404,0.899-0.9c0-0.266-0.44-0.598-1.307-0.986C1.745,10.443,0,9.662,0,7.966
		c0-1.599,1.301-2.899,2.899-2.899c0.943,0,1.83,0.367,2.497,1.034c0.391,0.391,0.391,1.023,0,1.414s-1.023,0.391-1.414,0
		C3.693,7.226,3.309,7.066,2.899,7.066C2.403,7.066,2,7.47,2,7.966c0,0.266,0.44,0.598,1.307,0.986
		c0.747,0.334,2.491,1.116,2.491,2.812c0,1.599-1.3,2.899-2.899,2.899C2.898,14.663,2.896,14.663,2.895,14.663z"/>
</g>
</svg>