<!-- Generator: Adobe Illustrator 21.1.0, SVG Export Plug-In  -->
<svg version="1.1"
	 xmlns="http://www.w3.org/2000/svg" xmlns:xlink="http://www.w3.org/1999/xlink" xmlns:a="http://ns.adobe.com/AdobeSVGViewerExtensions/3.0/"
	 x="0px" y="0px" width="28.677px" height="14.663px" viewBox="0 0 28.677 14.663"
	 style="enable-background:new 0 0 28.677 14.663;" xml:space="preserve">
<style type="text/css">
	.st0{fill:#231F20;}
</style>
<defs>
</defs>
<path class="st0" d="M12.014,5.065c-0.349,0-0.642,0.19-0.821,0.462c-0.509-0.285-1.087-0.462-1.711-0.462
	c-1.948,0-3.533,1.585-3.533,3.533c0,0.001,0,0.002,0,0.002v2.527c0,0.001,0,0.002,0,0.002c0,1.948,1.585,3.533,3.533,3.533
	c0.624,0,1.202-0.177,1.711-0.462c0.179,0.272,0.471,0.462,0.821,0.462c0.552,0,1-0.448,1-1V6.065
	C13.014,5.513,12.567,5.065,12.014,5.065z M9.482,12.663c-0.845,0-1.532-0.687-1.533-1.531c0-0.001,0-0.001,0-0.002V8.597
	c0,0,0-0.001,0-0.001c0.001-0.844,0.688-1.53,1.532-1.53c0.845,0,1.532,0.688,1.532,1.533v2.532
	C11.014,11.976,10.327,12.663,9.482,12.663z"/>
<path class="st0" d="M24.307,9.864l3.973-3.001c0.441-0.333,0.528-0.96,0.195-1.4c-0.332-0.44-0.959-0.528-1.4-0.195l-3.427,2.589V1
	c0-0.552-0.448-1-1-1s-1,0.448-1,1v12.663c0,0.552,0.448,1,1,1s1-0.448,1-1v-1.791l3.427,2.589c0.18,0.136,0.392,0.202,0.602,0.202
	c0.303,0,0.603-0.137,0.799-0.397c0.333-0.44,0.246-1.068-0.195-1.4L24.307,9.864z"/>
<path class="st0" d="M3.532,12.663C2.688,12.663,2,11.976,2,11.13V7.065h1.532c0.552,0,1-0.448,1-1s-0.448-1-1-1H2V1
	c0-0.552-0.448-1-1-1S0,0.448,0,1v10.13c0,1.948,1.584,3.533,3.532,3.533c0.552,0,1-0.448,1-1S4.084,12.663,3.532,12.663z"/>
<g>
	<path class="st0" d="M17.326,14.663c-0.94,0-1.826-0.367-2.492-1.033c-0.391-0.391-0.391-1.023,0-1.414s1.023-0.391,1.414,0
		c0.289,0.289,0.674,0.448,1.083,0.448c0.495,0,0.899-0.404,0.899-0.9c0-0.266-0.44-0.598-1.307-0.986
		c-0.747-0.334-2.491-1.116-2.491-2.812c0-1.599,1.301-2.899,2.899-2.899c0.943,0,1.83,0.367,2.497,1.034
		c0.391,0.391,0.391,1.023,0,1.414s-1.023,0.391-1.414,0c-0.289-0.289-0.674-0.448-1.083-0.448c-0.496,0-0.899,0.403-0.899,0.899
		c0,0.266,0.44,0.598,1.307,0.986c0.747,0.334,2.491,1.116,2.491,2.812c0,1.599-1.3,2.899-2.899,2.899
		C17.33,14.663,17.328,14.663,17.326,14.663z"/>
</g>
</svg>