<!-- Generator: Adobe Illustrator 21.1.0, SVG Export Plug-In  -->
<svg version="1.1"
	 xmlns="http://www.w3.org/2000/svg" xmlns:xlink="http://www.w3.org/1999/xlink" xmlns:a="http://ns.adobe.com/AdobeSVGViewerExtensions/3.0/"
	 x="0px" y="0px" width="67.445px" height="25.49px" viewBox="0 0 67.445 25.49" style="enable-background:new 0 0 67.445 25.49;"
	 xml:space="preserve">
<style type="text/css">
	.st0{fill:none;}
	.st1{fill:none;stroke:#231F20;stroke-width:2;stroke-linecap:round;stroke-miterlimit:10;}
	.st2{fill:#231F20;}
</style>
<defs>
</defs>
<rect class="st0" width="67.445" height="25.49"/>
<line class="st1" x1="57.151" y1="8.19" x2="57.151" y2="21.614"/>
<line class="st1" x1="57.151" y1="21.614" x2="60.901" y2="17.864"/>
<line class="st1" x1="53.401" y1="17.864" x2="57.151" y2="21.614"/>
<g>
	<path class="st2" d="M19.756,6.95c-0.624,0-1.202,0.177-1.712,0.462C17.866,7.14,17.573,6.95,17.223,6.95c-0.552,0-1,0.448-1,1
		v7.598c0,0.552,0.448,1,1,1s1-0.448,1-1v-5.065c0-0.845,0.688-1.533,1.533-1.533s1.533,0.688,1.533,1.533v5.065
		c0,0.552,0.448,1,1,1s1-0.448,1-1v-5.065C23.289,8.535,21.704,6.95,19.756,6.95z"/>
	<path class="st2" d="M36.721,6.95c-0.349,0-0.642,0.19-0.821,0.462C35.39,7.126,34.812,6.95,34.188,6.95
		c-1.948,0-3.533,1.585-3.533,3.533c0,0.001,0,0.002,0,0.002v2.527c0,0.001,0,0.002,0,0.002c0,1.948,1.585,3.533,3.533,3.533
		c0.624,0,1.202-0.177,1.711-0.462c0.179,0.272,0.471,0.462,0.821,0.462c0.552,0,1-0.448,1-1V7.95
		C37.721,7.398,37.273,6.95,36.721,6.95z M34.188,14.548c-0.845,0-1.532-0.687-1.533-1.531c0,0,0-0.001,0-0.002v-2.533
		c0,0,0-0.001,0-0.001c0.001-0.844,0.688-1.53,1.532-1.53c0.845,0,1.532,0.688,1.532,1.533v2.532
		C35.721,13.86,35.033,14.548,34.188,14.548z"/>
	<path class="st2" d="M14.806,10.483c0-1.948-1.585-3.533-3.533-3.533s-3.533,1.585-3.533,3.533c0,0.001,0,0.002,0,0.002v2.527
		c0,0.001,0,0.002,0,0.002c0,1.948,1.585,3.533,3.533,3.533s3.533-1.585,3.533-3.533l0-2.53
		C14.806,10.484,14.806,10.483,14.806,10.483z M11.273,14.548c-0.845,0-1.532-0.687-1.533-1.531c0,0,0-0.001,0-0.002v-2.533
		c0,0,0-0.001,0-0.001c0.001-0.844,0.688-1.53,1.532-1.53c0.845,0,1.532,0.687,1.533,1.531c0,0.001,0,0.001,0,0.002l0,2.532
		C12.806,13.86,12.119,14.548,11.273,14.548z"/>
	<path class="st2" d="M50.411,14.548c-0.845,0-1.532-0.688-1.532-1.533V8.95h1.532c0.552,0,1-0.448,1-1s-0.448-1-1-1h-1.532V2.884
		c0-0.552-0.448-1-1-1s-1,0.448-1,1v10.13c0,1.948,1.584,3.533,3.532,3.533c0.552,0,1-0.448,1-1
		C51.411,14.995,50.963,14.548,50.411,14.548z"/>
	<path class="st2" d="M28.238,14.548c-0.845,0-1.532-0.688-1.532-1.533V8.95h1.532c0.552,0,1-0.448,1-1s-0.448-1-1-1h-1.532V2.884
		c0-0.552-0.448-1-1-1s-1,0.448-1,1v10.13c0,1.948,1.584,3.533,3.532,3.533c0.552,0,1-0.448,1-1
		C29.238,14.995,28.791,14.548,28.238,14.548z"/>
	<path class="st2" d="M2.659,11.749l3.973-3.001c0.441-0.333,0.528-0.96,0.195-1.4c-0.332-0.44-0.959-0.528-1.4-0.195L2,9.741V2.884
		c0-0.552-0.448-1-1-1s-1,0.448-1,1v12.663c0,0.552,0.448,1,1,1s1-0.448,1-1v-1.791l3.427,2.589c0.18,0.136,0.392,0.202,0.602,0.202
		c0.303,0,0.603-0.137,0.799-0.397c0.333-0.44,0.246-1.068-0.195-1.4L2.659,11.749z"/>
	<path class="st2" d="M41.797,11.749l3.973-3.001c0.441-0.333,0.528-0.96,0.195-1.4c-0.332-0.44-0.959-0.528-1.4-0.195l-3.427,2.589
		V2.884c0-0.552-0.448-1-1-1s-1,0.448-1,1v12.663c0,0.552,0.448,1,1,1s1-0.448,1-1v-1.791l3.427,2.589
		c0.18,0.136,0.392,0.202,0.602,0.202c0.303,0,0.603-0.137,0.799-0.397c0.333-0.44,0.246-1.068-0.195-1.4L41.797,11.749z"/>
</g>
</svg>