<!-- Generator: Adobe Illustrator 21.1.0, SVG Export Plug-In  -->
<svg version="1.1"
	 xmlns="http://www.w3.org/2000/svg" xmlns:xlink="http://www.w3.org/1999/xlink" xmlns:a="http://ns.adobe.com/AdobeSVGViewerExtensions/3.0/"
	 x="0px" y="0px" width="52.901px" height="14.663px" viewBox="0 0 52.901 14.663"
	 style="enable-background:new 0 0 52.901 14.663;" xml:space="preserve">
<style type="text/css">
	.st0{fill:#231F20;}
</style>
<defs>
</defs>
<g>
	<g>
		<path class="st0" d="M43.412,14.663c-0.552,0-1-0.448-1-1V6.065c0-0.552,0.448-1,1-1s1,0.448,1,1v7.598
			C44.412,14.215,43.965,14.663,43.412,14.663z"/>
	</g>
	<g>
		<path class="st0" d="M43.423,2h-0.01c-0.552,0-1-0.448-1-1s0.448-1,1-1s1.005,0.448,1.005,1S43.975,2,43.423,2z"/>
	</g>
</g>
<path class="st0" d="M37.462,5.065c-0.624,0-1.202,0.177-1.712,0.462c-0.179-0.272-0.471-0.462-0.821-0.462c-0.552,0-1,0.448-1,1
	v7.598c0,0.552,0.448,1,1,1s1-0.448,1-1V8.598c0-0.845,0.688-1.533,1.533-1.533s1.533,0.688,1.533,1.533v5.065c0,0.552,0.448,1,1,1
	s1-0.448,1-1V8.598C40.995,6.65,39.41,5.065,37.462,5.065z"/>
<path class="st0" d="M6.065,12.663l-3.197-0.001L6.897,6.62c0.017-0.026,0.02-0.057,0.034-0.084c0.032-0.059,0.056-0.12,0.076-0.186
	c0.02-0.066,0.034-0.129,0.04-0.196C7.05,6.124,7.065,6.097,7.065,6.065c0-0.033-0.016-0.062-0.019-0.094
	c-0.007-0.069-0.02-0.133-0.04-0.198C6.987,5.712,6.965,5.655,6.935,5.6C6.905,5.544,6.871,5.495,6.83,5.445
	c-0.044-0.054-0.09-0.1-0.143-0.144C6.662,5.28,6.647,5.252,6.62,5.233c-0.026-0.018-0.057-0.02-0.084-0.035
	C6.477,5.167,6.417,5.143,6.352,5.123c-0.067-0.02-0.132-0.035-0.2-0.04C6.121,5.08,6.096,5.065,6.065,5.065L1,5.064
	c-0.552,0-1,0.448-1,1s0.448,1,1,1l3.197,0.001l-4.029,6.042c-0.017,0.026-0.02,0.057-0.034,0.084
	c-0.032,0.059-0.056,0.12-0.076,0.186c-0.02,0.066-0.034,0.129-0.04,0.196C0.015,13.604,0,13.63,0,13.662
	c0,0.033,0.016,0.062,0.019,0.094c0.007,0.069,0.02,0.133,0.04,0.198c0.019,0.061,0.041,0.118,0.071,0.173
	c0.03,0.056,0.064,0.105,0.104,0.155c0.044,0.054,0.09,0.1,0.143,0.144c0.025,0.021,0.04,0.049,0.067,0.068
	c0.034,0.023,0.073,0.033,0.109,0.051c0.033,0.017,0.064,0.034,0.1,0.047c0.113,0.042,0.228,0.07,0.345,0.07l0.001,0c0,0,0,0,0,0
	l5.065,0.001c0.552,0,1-0.448,1-1S6.617,12.663,6.065,12.663z"/>
<path class="st0" d="M31.512,5.065c-0.349,0-0.642,0.19-0.821,0.462c-0.509-0.285-1.087-0.462-1.711-0.462
	c-1.948,0-3.533,1.585-3.533,3.533c0,0.001,0,0.002,0,0.002v2.527c0,0,0,0.002,0,0.002c0,1.948,1.585,3.533,3.533,3.533
	c0.624,0,1.202-0.177,1.711-0.462c0.179,0.272,0.471,0.462,0.821,0.462c0.552,0,1-0.448,1-1V6.065
	C32.512,5.513,32.064,5.065,31.512,5.065z M28.98,12.663c-0.845,0-1.532-0.687-1.533-1.531l0-0.002V8.597c0,0,0-0.001,0-0.001
	c0.001-0.844,0.688-1.531,1.532-1.531c0.845,0,1.532,0.688,1.532,1.533v2.532C30.512,11.976,29.825,12.663,28.98,12.663z"/>
<path class="st0" d="M14.547,5.065c-0.349,0-0.642,0.19-0.821,0.462c-0.509-0.285-1.087-0.462-1.711-0.462
	c-1.948,0-3.533,1.585-3.533,3.533c0,0.001,0,0.002,0,0.002v2.527c0,0,0,0.002,0,0.002c0,1.948,1.585,3.533,3.533,3.533
	c0.624,0,1.202-0.177,1.711-0.462c0.179,0.272,0.471,0.462,0.821,0.462c0.552,0,1-0.448,1-1V6.065
	C15.547,5.513,15.099,5.065,14.547,5.065z M12.015,12.663c-0.845,0-1.532-0.687-1.533-1.531l0-0.002V8.597c0,0,0-0.001,0-0.001
	c0.001-0.844,0.688-1.531,1.532-1.531c0.845,0,1.532,0.688,1.532,1.533v2.532C13.547,11.976,12.86,12.663,12.015,12.663z"/>
<path class="st0" d="M49.368,5.066c-1.947,0-3.531,1.584-3.533,3.531l0,0.001v1.264c0,0.001,0,0.002,0,0.003
	c0,0.001,0,0.002,0,0.002v1.261c0,0.001,0,0.002,0,0.002c0,1.948,1.585,3.532,3.533,3.532c0.552,0,1-0.448,1-1s-0.448-1-1-1
	c-0.845,0-1.532-0.687-1.533-1.531l0-0.002v-0.266h4.065c0.552,0,1-0.448,1-1V8.599C52.901,6.651,51.316,5.066,49.368,5.066z
	 M50.901,8.865h-3.065V8.599c0-0.845,0.688-1.533,1.533-1.533s1.533,0.688,1.533,1.533V8.865z"/>
<path class="st0" d="M23.03,0c-0.552,0-1,0.448-1,1v4.43c-0.466-0.226-0.981-0.365-1.533-0.365c-1.948,0-3.533,1.585-3.533,3.533
	c0,0.001,0,0.002,0,0.002v2.527c0,0,0,0.002,0,0.002c0,1.948,1.585,3.533,3.533,3.533c0.624,0,1.202-0.177,1.712-0.462
	c0.179,0.272,0.471,0.462,0.821,0.462c0.552,0,1-0.448,1-1V1C24.03,0.448,23.582,0,23.03,0z M20.497,12.663
	c-0.844,0-1.531-0.686-1.532-1.53l0-0.001V8.599c0-0.001,0-0.001,0-0.002c0-0.845,0.688-1.532,1.533-1.532
	c0.845,0,1.533,0.688,1.533,1.533v2.532C22.03,11.976,21.342,12.663,20.497,12.663z"/>
</svg>