<!-- Generator: Adobe Illustrator 21.1.0, SVG Export Plug-In  -->
<svg version="1.1"
	 xmlns="http://www.w3.org/2000/svg" xmlns:xlink="http://www.w3.org/1999/xlink" xmlns:a="http://ns.adobe.com/AdobeSVGViewerExtensions/3.0/"
	 x="0px" y="0px" width="42.174px" height="28.362px" viewBox="0 0 42.174 28.362"
	 style="enable-background:new 0 0 42.174 28.362;" xml:space="preserve">
<style type="text/css">
	.st0{fill:none;}
	.st1{fill:#231F20;}
</style>
<defs>
</defs>
<rect class="st0" width="42.174" height="28.362"/>
<g>
	<path class="st1" d="M32.08,6.95c-0.552,0-1,0.448-1,1v5.065c0,0.845-0.688,1.533-1.533,1.533c-0.845,0-1.532-0.688-1.532-1.533
		V7.95c0-0.552-0.448-1-1-1s-1,0.448-1,1v5.065c0,1.948,1.584,3.533,3.532,3.533c0.624,0,1.202-0.177,1.712-0.462
		c0.179,0.272,0.471,0.462,0.821,0.462c0.552,0,1-0.448,1-1V7.95C33.08,7.398,32.632,6.95,32.08,6.95z"/>
	<path class="st1" d="M6.632,6.95c-0.349,0-0.642,0.19-0.821,0.462C5.302,7.126,4.724,6.95,4.1,6.95
		c-1.948,0-3.533,1.585-3.533,3.533c0,0.001,0,0.002,0,0.002v2.527c0,0.001,0,0.002,0,0.002c0,1.948,1.585,3.533,3.533,3.533
		c0.624,0,1.202-0.177,1.711-0.462c0.179,0.272,0.471,0.462,0.821,0.462c0.552,0,1-0.448,1-1V7.95
		C7.632,7.398,7.184,6.95,6.632,6.95z M4.1,14.548c-0.845,0-1.532-0.687-1.533-1.531c0,0,0-0.001,0-0.002v-2.533
		c0,0,0-0.001,0-0.001C2.568,9.636,3.255,8.95,4.1,8.95c0.845,0,1.532,0.688,1.532,1.533v2.532C5.632,13.86,4.944,14.548,4.1,14.548
		z"/>
	<path class="st1" d="M24.597,10.483c0-1.948-1.585-3.533-3.533-3.533s-3.533,1.585-3.533,3.533c0,0.001,0,0.002,0,0.002v2.527
		c0,0.001,0,0.002,0,0.002c0,1.948,1.585,3.533,3.533,3.533s3.533-1.585,3.533-3.533l0-2.53
		C24.597,10.484,24.597,10.483,24.597,10.483z M21.065,14.548c-0.845,0-1.532-0.687-1.533-1.531c0,0,0-0.001,0-0.002v-2.533
		c0,0,0-0.001,0-0.001c0.001-0.844,0.688-1.53,1.532-1.53c0.845,0,1.532,0.687,1.533,1.531c0,0.001,0,0.001,0,0.002l0,2.532
		C22.597,13.86,21.91,14.548,21.065,14.548z"/>
	<path class="st1" d="M16.114,10.485c0-0.001,0-0.002,0-0.002c0-1.948-1.585-3.533-3.533-3.533c-0.551,0-1.067,0.138-1.532,0.364
		v-4.43c0-0.552-0.448-1-1-1s-1,0.448-1,1v7.593c0,0.002,0,0.003,0,0.005c0,0.001,0,0.002,0,0.002v2.527c0,0.001,0,0.002,0,0.002
		c0,0.002,0,0.003,0,0.005v2.528c0,0.552,0.448,1,1,1c0.349,0,0.642-0.19,0.821-0.462c0.509,0.285,1.087,0.462,1.711,0.462
		c1.948,0,3.533-1.585,3.533-3.533c0-0.001,0-0.002,0-0.002V10.485z M12.582,14.548c-0.844,0-1.53-0.685-1.532-1.528v-2.542
		c0.003-0.843,0.689-1.528,1.532-1.528c0.845,0,1.532,0.687,1.533,1.532c0,0,0,0.001,0,0.002v2.532l0,0.001
		C14.113,13.861,13.426,14.548,12.582,14.548z"/>
	<path class="st1" d="M38.029,14.548c-0.845,0-1.532-0.688-1.532-1.533V8.95h1.532c0.552,0,1-0.448,1-1s-0.448-1-1-1h-1.532V2.884
		c0-0.552-0.448-1-1-1s-1,0.448-1,1v10.13c0,1.948,1.584,3.533,3.532,3.533c0.552,0,1-0.448,1-1
		C39.029,14.995,38.582,14.548,38.029,14.548z"/>
</g>
</svg>