<!-- Generator: Adobe Illustrator 21.1.0, SVG Export Plug-In  -->
<svg version="1.1"
	 xmlns="http://www.w3.org/2000/svg" xmlns:xlink="http://www.w3.org/1999/xlink" xmlns:a="http://ns.adobe.com/AdobeSVGViewerExtensions/3.0/"
	 x="0px" y="0px" width="239.565px" height="77.243px" viewBox="0 0 239.565 77.243"
	 style="enable-background:new 0 0 239.565 77.243;" xml:space="preserve">
<style type="text/css">
	.st0{fill:#FFFFFF;}
</style>
<defs>
</defs>
<g>
	<g>
		<g>
			<path class="st0" d="M167.933,11.2c-1.219,0-2.359,0.305-3.388,0.805V2.211c0-1.221-0.99-2.211-2.211-2.211
				c-1.221,0-2.211,0.99-2.211,2.211V19c0,0.004-0.001,0.007-0.001,0.011c0,0.002,0.001,0.004,0.001,0.005V30.21
				c0,1.221,0.99,2.211,2.211,2.211c1.221,0,2.211-0.99,2.211-2.211V19c0.006-1.864,1.523-3.378,3.388-3.378
				c1.869,0,3.389,1.52,3.389,3.389V30.21c0,1.221,0.99,2.211,2.211,2.211s2.211-0.99,2.211-2.211V19.011
				C175.744,14.704,172.24,11.2,167.933,11.2z"/>
			<path class="st0" d="M113.308,11.2c-2.198,0-4.179,0.92-5.6,2.387c-1.421-1.467-3.402-2.387-5.6-2.387
				c-1.38,0-2.658,0.39-3.784,1.021c-0.395-0.6-1.042-1.021-1.815-1.021c-1.221,0-2.211,0.99-2.211,2.211V30.21
				c0,1.221,0.99,2.211,2.211,2.211c1.221,0,2.211-0.99,2.211-2.211V19.011c0-1.869,1.52-3.389,3.388-3.389
				c1.869,0,3.389,1.52,3.389,3.389V30.21c0,1.221,0.99,2.211,2.211,2.211c1.221,0,2.211-0.99,2.211-2.211V19.011
				c0-1.869,1.52-3.389,3.389-3.389s3.389,1.52,3.389,3.389V30.21c0,1.221,0.99,2.211,2.211,2.211s2.211-0.99,2.211-2.211V19.011
				C121.119,14.704,117.614,11.2,113.308,11.2z"/>
			<path class="st0" d="M137.662,11.2c-0.773,0-1.42,0.42-1.815,1.021c-1.126-0.63-2.404-1.021-3.784-1.021
				c-4.307,0-7.811,3.504-7.811,7.811c0,0.002,0.001,0.004,0.001,0.005v5.588c0,0.002-0.001,0.004-0.001,0.005
				c0,4.307,3.504,7.811,7.811,7.811c1.38,0,2.658-0.39,3.784-1.021c0.395,0.6,1.042,1.021,1.815,1.021
				c1.221,0,2.211-0.99,2.211-2.211V13.411C139.874,12.19,138.884,11.2,137.662,11.2z M132.064,27.999
				c-1.868,0-3.387-1.518-3.389-3.386c0-0.001,0.001-0.003,0.001-0.004v-5.6c0-0.001-0.001-0.002-0.001-0.003
				c0.003-1.866,1.521-3.384,3.388-3.384c1.868,0,3.388,1.52,3.388,3.389v5.599C135.451,26.479,133.931,27.999,132.064,27.999z"/>
			<path class="st0" d="M237.354,11.2c-0.773,0-1.42,0.42-1.815,1.021c-1.126-0.63-2.404-1.021-3.784-1.021
				c-4.307,0-7.811,3.504-7.811,7.811c0,0.002,0.001,0.004,0.001,0.005v5.588c0,0.002-0.001,0.004-0.001,0.005
				c0,4.307,3.504,7.811,7.811,7.811c1.38,0,2.658-0.39,3.784-1.021c0.395,0.6,1.042,1.021,1.815,1.021
				c1.221,0,2.211-0.99,2.211-2.211V13.411C239.565,12.19,238.575,11.2,237.354,11.2z M231.755,27.999
				c-1.868,0-3.387-1.518-3.389-3.386c0-0.001,0.001-0.003,0.001-0.004v-5.6c0-0.001-0.001-0.002-0.001-0.003
				c0.003-1.866,1.521-3.384,3.388-3.384c1.868,0,3.388,1.52,3.388,3.389v5.599C235.143,26.479,233.623,27.999,231.755,27.999z"/>
			<path class="st0" d="M194.5,19.011c0-4.307-3.504-7.811-7.811-7.811s-7.811,3.504-7.811,7.811c0,0.002,0.001,0.004,0.001,0.005
				v5.588c0,0.002-0.001,0.004-0.001,0.005c0,4.307,3.504,7.811,7.811,7.811s7.811-3.504,7.811-7.811l-0.001-5.594
				C194.499,19.015,194.5,19.013,194.5,19.011z M186.689,27.999c-1.868,0-3.387-1.518-3.389-3.386c0-0.001,0.001-0.003,0.001-0.004
				v-5.6c0-0.001-0.001-0.002-0.001-0.003c0.003-1.866,1.521-3.384,3.388-3.384c1.868,0,3.387,1.518,3.389,3.385
				c0,0.001-0.001,0.002-0.001,0.004l0.001,5.599C190.078,26.479,188.558,27.999,186.689,27.999z"/>
			<path class="st0" d="M156.343,27.01c-0.863-0.864-2.263-0.867-3.128-0.003c-0.64,0.64-1.492,0.992-2.397,0.992
				c-1.868,0-3.387-1.518-3.389-3.384c0-0.001,0.001-0.002,0.001-0.004v-5.6c0-0.001-0.001-0.002-0.001-0.003
				c0.003-1.866,1.521-3.384,3.388-3.384c0.905,0,1.755,0.352,2.397,0.992c0.862,0.862,2.263,0.864,3.127-0.002
				c0.863-0.864,0.863-2.264-0.002-3.127c-1.475-1.474-3.436-2.286-5.521-2.286c-4.307,0-7.811,3.504-7.811,7.811
				c0,0.002,0.001,0.004,0.001,0.005v5.587c0,0.002-0.001,0.004-0.001,0.005c0,4.307,3.504,7.81,7.811,7.81
				c2.085,0,4.045-0.811,5.521-2.283C157.203,29.275,157.205,27.875,156.343,27.01z"/>
			<path class="st0" d="M205.444,27.999c-1.868,0-3.388-1.52-3.388-3.389V2.211c0-1.221-0.99-2.211-2.211-2.211
				c-1.221,0-2.211,0.99-2.211,2.211V24.61c0,4.307,3.503,7.811,7.81,7.811c1.221,0,2.211-0.99,2.211-2.211
				S206.665,27.999,205.444,27.999z"/>
			<path class="st0" d="M218.599,27.999c-1.868,0-3.388-1.52-3.388-3.389V2.211C215.211,0.99,214.221,0,213,0
				s-2.211,0.99-2.211,2.211V24.61c0,4.307,3.503,7.811,7.81,7.811c1.221,0,2.211-0.99,2.211-2.211S219.82,27.999,218.599,27.999z"
				/>
		</g>
		<g>
			<path class="st0" d="M62.436,11.2c-1.221,0-2.211,0.99-2.211,2.211V24.61c0,1.869-1.52,3.389-3.389,3.389
				c-1.868,0-3.388-1.52-3.388-3.389V13.411c0-1.221-0.99-2.211-2.211-2.211s-2.211,0.99-2.211,2.211V24.61
				c0,4.307,3.503,7.811,7.81,7.811c1.38,0,2.658-0.39,3.785-1.021c0.395,0.601,1.043,1.021,1.815,1.021
				c1.221,0,2.211-0.99,2.211-2.211V13.411C64.647,12.19,63.657,11.2,62.436,11.2z"/>
			<path class="st0" d="M13.41,11.2c-0.773,0-1.42,0.42-1.815,1.021C10.469,11.59,9.191,11.2,7.811,11.2
				C3.504,11.2,0,14.704,0,19.011c0,0.002,0.001,0.004,0.001,0.005v5.588C0.001,24.606,0,24.608,0,24.61
				c0,4.307,3.504,7.811,7.811,7.811c1.38,0,2.658-0.39,3.784-1.021c0.395,0.6,1.042,1.021,1.815,1.021
				c1.221,0,2.211-0.99,2.211-2.211V13.411C15.621,12.19,14.631,11.2,13.41,11.2z M7.811,27.999c-1.868,0-3.387-1.518-3.389-3.386
				c0-0.001,0.001-0.003,0.001-0.004v-5.6c0-0.001-0.001-0.002-0.001-0.003c0.003-1.866,1.521-3.384,3.388-3.384
				c1.868,0,3.388,1.52,3.388,3.389v5.599C11.199,26.479,9.679,27.999,7.811,27.999z"/>
			<path class="st0" d="M32.088,13.491c-1.475-1.474-3.435-2.286-5.52-2.286c-1.38,0-2.659,0.391-3.786,1.022
				c-0.395-0.601-1.043-1.022-1.816-1.022c-1.221,0-2.211,0.99-2.211,2.211L18.755,30.21c0,1.221,0.99,2.211,2.211,2.211
				c1.221,0,2.211-0.99,2.211-2.211l0.001-11.186c0-0.003,0.001-0.005,0.001-0.007c0-1.869,1.52-3.389,3.389-3.389
				c0.904,0,1.754,0.352,2.396,0.992c0.862,0.862,2.263,0.864,3.127-0.002C32.953,15.754,32.953,14.354,32.088,13.491z"/>
			<path class="st0" d="M81.114,13.491c-1.475-1.474-3.435-2.286-5.52-2.286c-1.38,0-2.659,0.391-3.786,1.022
				c-0.395-0.601-1.043-1.022-1.816-1.022c-1.221,0-2.211,0.99-2.211,2.211L67.78,30.21c0,1.221,0.99,2.211,2.211,2.211
				c1.221,0,2.211-0.99,2.211-2.211l0.001-11.186c0-0.003,0.001-0.005,0.001-0.007c0-1.869,1.52-3.389,3.389-3.389
				c0.904,0,1.754,0.352,2.396,0.992c0.862,0.862,2.263,0.864,3.127-0.002C81.979,15.754,81.979,14.354,81.114,13.491z"/>
			<path class="st0" d="M43.681,27.999c-1.868,0-3.388-1.52-3.388-3.389v-8.988h3.388c1.221,0,2.211-0.99,2.211-2.211
				s-0.99-2.211-2.211-2.211h-3.388V2.211C40.293,0.99,39.303,0,38.082,0s-2.211,0.99-2.211,2.211V24.61
				c0,4.307,3.503,7.811,7.81,7.811c1.221,0,2.211-0.99,2.211-2.211S44.902,27.999,43.681,27.999z"/>
		</g>
	</g>
	<g>
		<g>
			<g>
				<g>
					<path class="st0" d="M109.598,72.179c-0.552,0-1-0.448-1-1v-7.598c0-0.552,0.448-1,1-1s1,0.448,1,1v7.598
						C110.598,71.731,110.15,72.179,109.598,72.179z"/>
				</g>
				<g>
					<path class="st0" d="M109.608,59.515h-0.01c-0.552,0-1-0.448-1-1s0.448-1,1-1s1.005,0.448,1.005,1
						S110.161,59.515,109.608,59.515z"/>
				</g>
			</g>
			<path class="st0" d="M106.181,62.581c-0.552,0-1,0.448-1,1v5.065c0,0.845-0.688,1.533-1.533,1.533
				c-0.845,0-1.532-0.688-1.532-1.533v-5.065c0-0.552-0.448-1-1-1s-1,0.448-1,1v5.065c0,1.948,1.584,3.533,3.532,3.533
				c0.624,0,1.202-0.177,1.712-0.462c0.179,0.272,0.471,0.462,0.821,0.462c0.552,0,1-0.448,1-1v-7.598
				C107.181,63.029,106.733,62.581,106.181,62.581z"/>
		</g>
		<g>
			<path class="st0" d="M129.49,67.38l2.162-3.243c0.306-0.459,0.182-1.081-0.277-1.387c-0.46-0.308-1.08-0.182-1.387,0.277
				l-1.7,2.55l-1.701-2.551c-0.307-0.459-0.928-0.585-1.387-0.277c-0.459,0.306-0.583,0.927-0.277,1.387l2.163,3.244l-2.163,3.244
				c-0.306,0.459-0.182,1.081,0.277,1.387c0.17,0.114,0.363,0.168,0.554,0.168c0.323,0,0.64-0.156,0.833-0.445l1.701-2.551
				l1.7,2.551c0.193,0.289,0.51,0.445,0.833,0.445c0.19,0,0.383-0.054,0.554-0.168c0.459-0.306,0.583-0.927,0.277-1.387
				L129.49,67.38z"/>
			<path class="st0" d="M122.338,62.581c-0.552,0-1,0.448-1,1v5.065c0,0.845-0.688,1.533-1.533,1.533
				c-0.845,0-1.532-0.688-1.532-1.533v-5.065c0-0.552-0.448-1-1-1s-1,0.448-1,1v5.065c0,1.948,1.584,3.533,3.532,3.533
				c0.624,0,1.202-0.177,1.712-0.462c0.179,0.272,0.471,0.462,0.821,0.462c0.552,0,1-0.448,1-1v-7.598
				C123.338,63.029,122.89,62.581,122.338,62.581z"/>
		</g>
		<g>
			<path class="st0" d="M76.481,62.581c-0.349,0-0.642,0.19-0.821,0.462c-0.509-0.285-1.087-0.462-1.711-0.462
				c-1.948,0-3.533,1.585-3.533,3.533c0,0.001,0,0.002,0,0.002v2.527c0,0,0,0.002,0,0.002c0,1.948,1.585,3.533,3.533,3.533
				c0.624,0,1.202-0.177,1.711-0.462c0.179,0.272,0.471,0.462,0.821,0.462c0.552,0,1-0.448,1-1v-7.598
				C77.481,63.029,77.033,62.581,76.481,62.581z M73.949,70.179c-0.845,0-1.532-0.687-1.533-1.531c0,0,0-0.001,0-0.002v-2.533
				c0,0,0-0.001,0-0.001c0.001-0.844,0.688-1.53,1.532-1.53c0.845,0,1.532,0.688,1.532,1.533v2.532
				C75.481,69.491,74.794,70.179,73.949,70.179z"/>
			<path class="st0" d="M85.963,66.116c0-0.001,0-0.002,0-0.002c0-1.948-1.585-3.533-3.533-3.533c-0.624,0-1.202,0.177-1.712,0.462
				c-0.179-0.272-0.471-0.462-0.821-0.462c-0.552,0-1,0.448-1,1v12.662c0,0.552,0.448,1,1,1s1-0.448,1-1v-4.429
				c0.466,0.226,0.981,0.365,1.533,0.365c1.948,0,3.533-1.585,3.533-3.533c0-0.001,0-0.002,0-0.002V66.116z M82.431,70.179
				c-0.845,0-1.533-0.688-1.533-1.533v-2.532c0-0.845,0.688-1.533,1.533-1.533c0.845,0,1.532,0.687,1.533,1.532c0,0,0,0.001,0,0.002
				v2.532l0,0.001C83.962,69.492,83.276,70.179,82.431,70.179z"/>
			<path class="st0" d="M94.446,66.116c0-0.001,0-0.002,0-0.002c0-1.948-1.585-3.533-3.533-3.533c-0.624,0-1.202,0.177-1.712,0.462
				c-0.179-0.272-0.471-0.462-0.821-0.462c-0.552,0-1,0.448-1,1v12.662c0,0.552,0.448,1,1,1s1-0.448,1-1v-4.429
				c0.466,0.226,0.981,0.365,1.533,0.365c1.948,0,3.533-1.585,3.533-3.533c0-0.001,0-0.002,0-0.002V66.116z M90.914,70.179
				c-0.845,0-1.533-0.688-1.533-1.533v-2.532c0-0.845,0.688-1.533,1.533-1.533c0.845,0,1.532,0.687,1.533,1.532c0,0,0,0.001,0,0.002
				v2.532l0,0.001C92.445,69.492,91.758,70.179,90.914,70.179z"/>
		</g>
		<g>
			<path class="st0" d="M47.097,62.632c-0.526-0.177-1.091,0.109-1.265,0.632l-1.584,4.751l-1.584-4.752
				c-0.008-0.023-0.026-0.039-0.035-0.061c-0.026-0.062-0.061-0.117-0.099-0.173c-0.037-0.054-0.071-0.107-0.117-0.152
				c-0.041-0.041-0.089-0.072-0.137-0.106c-0.061-0.042-0.12-0.08-0.189-0.108c-0.02-0.008-0.035-0.025-0.056-0.032
				c-0.036-0.012-0.071-0.006-0.107-0.013c-0.07-0.016-0.139-0.027-0.212-0.026c-0.069,0-0.132,0.011-0.198,0.025
				c-0.039,0.008-0.077,0.001-0.115,0.014c-0.023,0.008-0.038,0.026-0.06,0.035c-0.064,0.027-0.12,0.063-0.178,0.102
				c-0.052,0.036-0.102,0.069-0.146,0.113c-0.043,0.043-0.076,0.093-0.111,0.144c-0.04,0.058-0.076,0.115-0.103,0.18
				c-0.009,0.022-0.027,0.037-0.034,0.06l-1.583,4.751l-1.584-4.752c-0.174-0.523-0.738-0.808-1.265-0.632
				c-0.524,0.175-0.807,0.741-0.632,1.265l2.533,7.598c0.009,0.026,0.027,0.046,0.037,0.072c0.018,0.042,0.039,0.08,0.062,0.12
				c0.04,0.067,0.086,0.126,0.139,0.181c0.029,0.03,0.056,0.06,0.089,0.087c0.081,0.065,0.171,0.117,0.268,0.154
				c0.014,0.005,0.023,0.016,0.037,0.021c0.003,0.001,0.005,0,0.008,0.001c0.05,0.016,0.105,0.018,0.158,0.026
				c0.05,0.008,0.101,0.025,0.151,0.025c0.108,0,0.214-0.019,0.314-0.052c0.001,0,0.002,0,0.002,0
				c0.004-0.001,0.006-0.005,0.01-0.006c0.11-0.038,0.209-0.098,0.299-0.172c0.029-0.023,0.052-0.05,0.078-0.076
				c0.057-0.058,0.106-0.121,0.148-0.193c0.022-0.037,0.041-0.072,0.058-0.111c0.011-0.026,0.029-0.047,0.039-0.074l1.584-4.752
				l1.584,4.751c0.009,0.026,0.027,0.046,0.037,0.072c0.018,0.042,0.039,0.08,0.062,0.12c0.04,0.067,0.086,0.126,0.139,0.181
				c0.029,0.03,0.056,0.06,0.089,0.087c0.081,0.065,0.171,0.117,0.268,0.154c0.014,0.005,0.023,0.016,0.037,0.021
				c0.003,0.001,0.005,0,0.008,0.001c0.05,0.016,0.105,0.018,0.158,0.026c0.05,0.008,0.101,0.025,0.151,0.025
				c0.108,0,0.214-0.019,0.314-0.052c0.001,0,0.002,0,0.002,0c0.004-0.001,0.006-0.005,0.01-0.006
				c0.11-0.038,0.209-0.098,0.299-0.172c0.029-0.023,0.052-0.05,0.078-0.076c0.057-0.058,0.106-0.121,0.148-0.193
				c0.022-0.037,0.041-0.072,0.058-0.111c0.011-0.026,0.029-0.047,0.039-0.074l2.533-7.598
				C47.904,63.373,47.621,62.806,47.097,62.632z"/>
			<path class="st0" d="M64.746,66.116c0-0.001,0-0.002,0-0.002c0-1.948-1.585-3.533-3.533-3.533c-0.551,0-1.067,0.138-1.532,0.364
				v-4.43c0-0.552-0.448-1-1-1s-1,0.448-1,1v7.593c0,0.002,0,0.003,0,0.005c0,0.001,0,0.002,0,0.002v2.527c0,0,0,0.002,0,0.002
				c0,0.002,0,0.003,0,0.005v2.528c0,0.552,0.448,1,1,1c0.349,0,0.642-0.19,0.821-0.462c0.509,0.285,1.087,0.462,1.711,0.462
				c1.948,0,3.533-1.585,3.533-3.533c0-0.001,0-0.002,0-0.002V66.116z M61.214,70.179c-0.844,0-1.53-0.685-1.532-1.528v-2.542
				c0.003-0.843,0.689-1.528,1.532-1.528c0.845,0,1.532,0.687,1.533,1.532c0,0,0,0.001,0,0.002v2.532l0,0.001
				C62.745,69.492,62.059,70.179,61.214,70.179z"/>
			<path class="st0" d="M52.731,62.582c-1.947,0-3.531,1.584-3.533,3.531c0,0,0,0.001,0,0.001v1.264c0,0.001,0,0.002,0,0.003
				c0,0.001,0,0.002,0,0.002v1.261c0,0.001,0,0.002,0,0.002c0,1.949,1.585,3.533,3.533,3.533c0.552,0,1-0.448,1-1s-0.448-1-1-1
				c-0.845,0-1.532-0.687-1.533-1.531c0-0.001,0-0.001,0-0.002V68.38h4.065c0.552,0,1-0.448,1-1v-1.266
				C56.264,64.167,54.679,62.582,52.731,62.582z M54.264,66.38h-3.065v-0.266c0-0.845,0.688-1.533,1.533-1.533
				s1.533,0.688,1.533,1.533V66.38z"/>
		</g>
		<g>
			<path class="st0" d="M13.015,66.114c0-1.948-1.585-3.533-3.533-3.533S5.95,64.166,5.95,66.114c0,0.001,0,0.002,0,0.002v2.527
				c0,0,0,0.002,0,0.002c0,1.948,1.585,3.533,3.533,3.533s3.533-1.585,3.533-3.533l0-2.53
				C13.014,66.115,13.015,66.114,13.015,66.114z M9.482,70.179c-0.845,0-1.532-0.687-1.533-1.531c0,0,0-0.001,0-0.002v-2.533
				c0,0,0-0.001,0-0.001c0.001-0.844,0.688-1.53,1.532-1.53c0.845,0,1.532,0.687,1.533,1.531c0,0.001,0,0.001,0,0.002l0,2.532
				C11.015,69.491,10.327,70.179,9.482,70.179z"/>
			<path class="st0" d="M29.98,66.114c0-1.948-1.585-3.533-3.533-3.533s-3.533,1.585-3.533,3.533c0,0.001,0,0.002,0,0.002v2.527
				c0,0,0,0.002,0,0.002c0,1.948,1.585,3.533,3.533,3.533s3.533-1.585,3.533-3.533l0-2.53C29.98,66.115,29.98,66.114,29.98,66.114z
				 M26.448,70.179c-0.845,0-1.532-0.687-1.533-1.531c0,0,0-0.001,0-0.002v-2.533c0,0,0-0.001,0-0.001
				c0.001-0.844,0.688-1.53,1.532-1.53c0.845,0,1.532,0.687,1.533,1.531c0,0.001,0,0.001,0,0.002l0,2.532
				C27.98,69.491,27.293,70.179,26.448,70.179z"/>
			<path class="st0" d="M3.532,70.179C2.688,70.179,2,69.491,2,68.646v-10.13c0-0.552-0.448-1-1-1s-1,0.448-1,1v10.13
				c0,1.948,1.584,3.533,3.532,3.533c0.552,0,1-0.448,1-1S4.084,70.179,3.532,70.179z"/>
			<path class="st0" d="M21.497,66.107c-0.004-1.945-1.587-3.526-3.532-3.526c-1.948,0-3.533,1.585-3.533,3.533
				c0,0.001,0,0.002,0,0.002l0,2.53c0,1.948,1.585,3.533,3.533,3.533c0.551,0,1.067-0.138,1.533-0.365v1.894
				c0,0.845-0.688,1.533-1.533,1.533c-0.409,0-0.794-0.159-1.083-0.448c-0.391-0.391-1.023-0.391-1.414,0s-0.391,1.023,0,1.414
				c0.667,0.667,1.554,1.034,2.497,1.034c1.948,0,3.533-1.585,3.533-3.533V66.11C21.498,66.109,21.497,66.108,21.497,66.107z
				 M17.965,70.179c-0.845,0-1.533-0.688-1.533-1.533l0-2.532c0-0.001,0-0.001,0-0.002c0.001-0.844,0.688-1.531,1.533-1.531
				c0.845,0,1.533,0.688,1.533,1.533v2.532C19.498,69.491,18.81,70.179,17.965,70.179z"/>
		</g>
	</g>
	<g>
		<g>
			<g>
				<g>
					<path class="st0" d="M117.019,54.189c-0.552,0-1-0.448-1-1v-7.598c0-0.552,0.448-1,1-1s1,0.448,1,1v7.598
						C118.019,53.741,117.572,54.189,117.019,54.189z"/>
				</g>
				<g>
					<path class="st0" d="M117.03,41.526h-0.01c-0.552,0-1-0.448-1-1s0.448-1,1-1s1.005,0.448,1.005,1S117.582,41.526,117.03,41.526
						z"/>
				</g>
			</g>
			<path class="st0" d="M139.198,44.594c-0.624,0-1.202,0.177-1.712,0.462c-0.179-0.272-0.471-0.462-0.821-0.462
				c-0.552,0-1,0.448-1,1v7.598c0,0.552,0.448,1,1,1s1-0.448,1-1v-5.065c0-0.845,0.688-1.533,1.533-1.533s1.533,0.688,1.533,1.533
				v5.065c0,0.552,0.448,1,1,1s1-0.448,1-1v-5.065C142.73,46.178,141.145,44.594,139.198,44.594z"/>
			<path class="st0" d="M133.248,52.192l-3.197-0.001l4.029-6.042c0.017-0.026,0.02-0.057,0.034-0.084
				c0.032-0.059,0.056-0.12,0.076-0.186c0.02-0.066,0.034-0.129,0.04-0.196c0.003-0.031,0.018-0.058,0.018-0.089
				c0-0.033-0.016-0.062-0.019-0.094c-0.007-0.069-0.02-0.133-0.04-0.198c-0.019-0.061-0.041-0.118-0.071-0.173
				c-0.03-0.056-0.064-0.105-0.104-0.155c-0.044-0.054-0.09-0.1-0.143-0.144c-0.025-0.021-0.04-0.049-0.067-0.068
				c-0.026-0.018-0.057-0.02-0.084-0.035c-0.059-0.032-0.119-0.056-0.184-0.075c-0.067-0.02-0.132-0.035-0.2-0.04
				c-0.03-0.003-0.056-0.017-0.086-0.017l-5.065-0.001c-0.552,0-1,0.448-1,1s0.448,1,1,1l3.197,0.001l-4.029,6.042
				c-0.017,0.026-0.02,0.057-0.034,0.084c-0.032,0.059-0.056,0.12-0.076,0.186c-0.02,0.066-0.034,0.129-0.04,0.196
				c-0.003,0.031-0.018,0.058-0.018,0.089c0,0.033,0.016,0.062,0.019,0.094c0.007,0.069,0.02,0.133,0.04,0.198
				c0.019,0.061,0.041,0.118,0.071,0.173c0.03,0.056,0.064,0.105,0.104,0.155c0.044,0.054,0.09,0.1,0.143,0.144
				c0.025,0.021,0.04,0.049,0.067,0.068c0.034,0.023,0.073,0.033,0.109,0.051c0.033,0.017,0.064,0.034,0.1,0.047
				c0.113,0.042,0.228,0.07,0.345,0.07l0.001,0c0,0,0,0,0,0l5.065,0.001c0.552,0,1-0.448,1-1S133.8,52.192,133.248,52.192z"/>
			<path class="st0" d="M107.652,44.594c-0.349,0-0.642,0.19-0.821,0.462c-0.509-0.285-1.087-0.462-1.711-0.462
				c-1.948,0-3.533,1.585-3.533,3.533c0,0.001,0,0.002,0,0.002v2.527c0,0,0,0.002,0,0.002c0,1.948,1.585,3.533,3.533,3.533
				c0.624,0,1.202-0.177,1.711-0.462c0.179,0.272,0.471,0.462,0.821,0.462c0.552,0,1-0.448,1-1v-7.598
				C108.652,45.041,108.204,44.594,107.652,44.594z M105.12,52.191c-0.845,0-1.532-0.687-1.533-1.531l0-0.002v-2.533
				c0,0,0-0.001,0-0.001c0.001-0.844,0.688-1.531,1.532-1.531c0.845,0,1.532,0.688,1.532,1.533v2.532
				C106.652,51.504,105.965,52.191,105.12,52.191z"/>
			<path class="st0" d="M125.473,51.743c-0.39-0.391-1.023-0.392-1.415-0.001c-0.29,0.29-0.675,0.449-1.084,0.449
				c-0.845,0-1.532-0.687-1.533-1.531l0-0.002v-2.533c0,0,0-0.001,0-0.001c0.001-0.844,0.688-1.531,1.532-1.531
				c0.409,0,0.794,0.159,1.084,0.449c0.39,0.39,1.023,0.391,1.414-0.001c0.39-0.391,0.39-1.024-0.001-1.414
				c-0.667-0.667-1.554-1.034-2.497-1.034c-1.948,0-3.533,1.585-3.533,3.533c0,0.001,0,0.002,0,0.002v2.527c0,0.001,0,0.002,0,0.002
				c0,1.948,1.585,3.532,3.533,3.532c0.943,0,1.83-0.367,2.497-1.033C125.863,52.767,125.864,52.134,125.473,51.743z"/>
			<path class="st0" d="M92.428,48.119c-0.004-1.945-1.587-3.526-3.532-3.526c-1.948,0-3.533,1.585-3.533,3.533
				c0,0.001,0,0.002,0,0.002l0,2.53c0,1.948,1.585,3.533,3.533,3.533c0.551,0,1.067-0.138,1.533-0.365v1.894
				c0,0.845-0.688,1.533-1.533,1.533c-0.409,0-0.794-0.159-1.083-0.448c-0.391-0.391-1.023-0.391-1.414,0s-0.391,1.023,0,1.414
				c0.667,0.667,1.554,1.034,2.497,1.034c1.948,0,3.533-1.585,3.533-3.533v-7.598C92.429,48.122,92.428,48.121,92.428,48.119z
				 M88.896,52.191c-0.845,0-1.533-0.688-1.533-1.533l0-2.532c0-0.001,0-0.001,0-0.002c0.001-0.844,0.688-1.531,1.533-1.531
				c0.845,0,1.533,0.688,1.533,1.533v2.532C90.429,51.504,89.741,52.191,88.896,52.191z"/>
			<path class="st0" d="M150.213,44.594c-0.552,0-1,0.448-1,1l0,5.064l0,0.001c0,0.845-0.688,1.533-1.532,1.533
				c-0.845,0-1.533-0.688-1.533-1.533v-5.062c0-0.552-0.448-1-1-1s-1,0.448-1,1v5.062c0,1.948,1.585,3.533,3.533,3.533
				c0.551,0,1.067-0.138,1.532-0.364l0,1.894c0,0.845-0.688,1.533-1.532,1.533c-0.409,0-0.794-0.159-1.084-0.449
				c-0.39-0.39-1.023-0.391-1.414,0.001c-0.39,0.391-0.39,1.024,0.001,1.414c0.667,0.667,1.554,1.034,2.497,1.034
				c1.948,0,3.532-1.585,3.532-3.533l0-10.127C151.213,45.041,150.765,44.594,150.213,44.594z"/>
			<path class="st0" d="M99.876,45.627c-0.667-0.667-1.554-1.034-2.497-1.034c-0.624,0-1.203,0.177-1.712,0.462
				c-0.179-0.272-0.472-0.462-0.821-0.462c-0.552,0-1,0.448-1,1l0,7.595c0,0.552,0.448,1,1,1s1-0.448,1-1l0-5.059
				c0-0.001,0.001-0.002,0.001-0.003c0-0.845,0.688-1.533,1.533-1.533c0.409,0,0.793,0.159,1.083,0.449
				c0.39,0.39,1.023,0.391,1.414-0.001C100.267,46.651,100.267,46.017,99.876,45.627z"/>
			<path class="st0" d="M113.602,47.123h-1.533v-4.065c0-0.845,0.688-1.532,1.533-1.532c0.552,0,1-0.448,1-1s-0.448-1-1-1
				c-1.948,0-3.533,1.584-3.533,3.532v10.13c0,0.552,0.448,1,1,1s1-0.448,1-1v-4.065h1.533c0.552,0,1-0.448,1-1
				S114.154,47.123,113.602,47.123z"/>
		</g>
		<g>
			<path class="st0" d="M70.212,44.208c-0.624,0-1.202,0.177-1.712,0.462c-0.179-0.272-0.471-0.462-0.821-0.462
				c-0.552,0-1,0.448-1,1v7.598c0,0.552,0.448,1,1,1s1-0.448,1-1V47.74c0-0.845,0.688-1.533,1.533-1.533s1.533,0.688,1.533,1.533
				v5.065c0,0.552,0.448,1,1,1s1-0.448,1-1V47.74C73.744,45.793,72.16,44.208,70.212,44.208z"/>
			<path class="st0" d="M64.262,44.208c-0.349,0-0.642,0.19-0.821,0.462c-0.509-0.285-1.087-0.462-1.711-0.462
				c-1.948,0-3.533,1.585-3.533,3.533c0,0.001,0,0.002,0,0.002v2.527c0,0,0,0.002,0,0.002c0,1.948,1.585,3.533,3.533,3.533
				c0.624,0,1.202-0.177,1.711-0.462c0.179,0.272,0.471,0.462,0.821,0.462c0.552,0,1-0.448,1-1v-7.598
				C65.262,44.655,64.814,44.208,64.262,44.208z M61.73,51.805c-0.845,0-1.532-0.687-1.533-1.531l0-0.002v-2.533
				c0,0,0-0.001,0-0.001c0.001-0.844,0.688-1.531,1.532-1.531c0.845,0,1.532,0.688,1.532,1.533v2.532
				C63.262,51.118,62.574,51.805,61.73,51.805z"/>
			<path class="st0" d="M13.905,47.936c0-0.001,0-0.002,0-0.002c0-1.948-1.585-3.533-3.533-3.533c-0.624,0-1.202,0.177-1.712,0.462
				c-0.179-0.272-0.471-0.462-0.821-0.462c-0.552,0-1,0.448-1,1v12.662c0,0.552,0.448,1,1,1s1-0.448,1-1v-4.429
				c0.466,0.226,0.981,0.365,1.533,0.365c1.948,0,3.533-1.585,3.533-3.533c0-0.001,0-0.002,0-0.002V47.936z M10.373,51.998
				c-0.845,0-1.533-0.688-1.533-1.533v-2.532c0-0.845,0.688-1.533,1.533-1.533c0.845,0,1.532,0.687,1.533,1.532
				c0,0.001,0,0.001,0,0.002v2.532l0,0.001C11.904,51.312,11.218,51.998,10.373,51.998z"/>
			<path class="st0" d="M30.13,47.933c0-1.948-1.585-3.533-3.533-3.533s-3.533,1.585-3.533,3.533c0,0.001,0,0.002,0,0.002v2.527
				c0,0,0,0.002,0,0.002c0,1.948,1.585,3.533,3.533,3.533s3.533-1.585,3.533-3.533l0-2.53C30.129,47.935,30.13,47.934,30.13,47.933z
				 M26.597,51.998c-0.845,0-1.532-0.687-1.533-1.531l0-0.002v-2.533c0,0,0-0.001,0-0.001c0.001-0.844,0.688-1.531,1.532-1.531
				c0.845,0,1.532,0.687,1.533,1.531c0,0.001,0,0.001,0,0.002l0,2.532C28.13,51.311,27.442,51.998,26.597,51.998z"/>
			<path class="st0" d="M38.85,44.208c-1.947,0-3.531,1.584-3.533,3.531l0,0.001v1.264c0,0.001,0,0.002,0,0.003
				c0,0.001,0,0.002,0,0.002v1.261c0,0.001,0,0.002,0,0.002c0,1.948,1.585,3.532,3.533,3.532c0.552,0,1-0.448,1-1s-0.448-1-1-1
				c-0.845,0-1.532-0.687-1.533-1.531l0-0.002v-0.266h4.065c0.552,0,1-0.448,1-1V47.74C42.383,45.793,40.798,44.208,38.85,44.208z
				 M40.383,48.006h-3.065V47.74c0-0.845,0.688-1.533,1.533-1.533s1.533,0.688,1.533,1.533V48.006z"/>
			<path class="st0" d="M21.354,45.434c-0.667-0.667-1.554-1.034-2.497-1.034c-0.624,0-1.203,0.177-1.712,0.462
				c-0.179-0.272-0.472-0.462-0.821-0.462c-0.552,0-1,0.448-1,1l0,7.595c0,0.552,0.448,1,1,1s1-0.448,1-1l0-5.059
				c0-0.001,0.001-0.002,0.001-0.003c0-0.845,0.688-1.533,1.533-1.533c0.409,0,0.793,0.159,1.083,0.449
				c0.39,0.39,1.023,0.391,1.414-0.001C21.745,46.458,21.745,45.825,21.354,45.434z"/>
			<path class="st0" d="M46.459,49.007l3.973-3.001c0.441-0.333,0.528-0.96,0.195-1.4c-0.332-0.44-0.959-0.528-1.4-0.195
				L45.8,46.998v-6.856c0-0.552-0.448-1-1-1s-1,0.448-1,1v12.663c0,0.552,0.448,1,1,1s1-0.448,1-1v-1.791l3.427,2.589
				c0.18,0.136,0.392,0.202,0.602,0.202c0.303,0,0.603-0.137,0.799-0.397c0.333-0.44,0.246-1.068-0.195-1.4L46.459,49.007z"/>
			<path class="st0" d="M55.779,51.805c-0.845,0-1.532-0.688-1.532-1.533v-4.065h1.532c0.552,0,1-0.448,1-1s-0.448-1-1-1h-1.532
				v-4.065c0-0.552-0.448-1-1-1s-1,0.448-1,1v10.13c0,1.948,1.584,3.533,3.532,3.533c0.552,0,1-0.448,1-1
				S56.332,51.805,55.779,51.805z"/>
			<path class="st0" d="M78.694,51.805c-0.845,0-1.532-0.688-1.532-1.533v-4.065h1.532c0.552,0,1-0.448,1-1s-0.448-1-1-1h-1.532
				v-4.065c0-0.552-0.448-1-1-1s-1,0.448-1,1v10.13c0,1.948,1.584,3.533,3.532,3.533c0.552,0,1-0.448,1-1
				S79.246,51.805,78.694,51.805z"/>
			<g>
				<path class="st0" d="M30.367,56.87c0.845,0,1.532-0.688,1.532-1.533v-10.13c0-0.552,0.448-1,1-1s1,0.448,1,1v10.13
					c0,1.948-1.584,3.533-3.532,3.533c-0.552,0-1-0.448-1-1S29.815,56.87,30.367,56.87z"/>
				<g>
					<g>
						<g>
							<path class="st0" d="M32.904,41.143h-0.01c-0.552,0-1-0.448-1-1s0.448-1,1-1s1.005,0.448,1.005,1
								S33.457,41.143,32.904,41.143z"/>
						</g>
					</g>
					<g>
						<path class="st0" d="M32.9,55.339"/>
					</g>
				</g>
			</g>
		</g>
	</g>
</g>
</svg>