<!-- Generator: Adobe Illustrator 21.1.0, SVG Export Plug-In  -->
<svg version="1.1"
	 xmlns="http://www.w3.org/2000/svg" xmlns:xlink="http://www.w3.org/1999/xlink" xmlns:a="http://ns.adobe.com/AdobeSVGViewerExtensions/3.0/"
	 x="0px" y="0px" width="89.471px" height="25.49px" viewBox="0 0 89.471 25.49" style="enable-background:new 0 0 89.471 25.49;"
	 xml:space="preserve">
<style type="text/css">
	.st0{fill:none;}
	.st1{fill:#231F20;}
	.st2{fill:none;stroke:#231F20;stroke-width:2;stroke-linecap:round;stroke-miterlimit:10;}
</style>
<defs>
</defs>
<rect class="st0" width="89.471" height="25.49"/>
<g>
	<g>
		<path class="st1" d="M65.678,6.95c-0.994,0-1.89,0.416-2.533,1.08c-0.643-0.663-1.539-1.08-2.533-1.08
			c-0.624,0-1.202,0.177-1.711,0.462C58.722,7.14,58.43,6.95,58.08,6.95c-0.552,0-1,0.448-1,1v7.598c0,0.552,0.448,1,1,1
			s1-0.448,1-1v-5.065c0-0.845,0.688-1.533,1.532-1.533c0.845,0,1.533,0.688,1.533,1.533v5.065c0,0.552,0.448,1,1,1s1-0.448,1-1
			v-5.065c0-0.845,0.688-1.533,1.533-1.533s1.533,0.688,1.533,1.533v5.065c0,0.552,0.448,1,1,1s1-0.448,1-1v-5.065
			C69.21,8.535,67.626,6.95,65.678,6.95z"/>
		<path class="st1" d="M74.161,6.951c-1.947,0-3.531,1.584-3.533,3.531c0,0,0,0.001,0,0.001v1.264c0,0.001,0,0.002,0,0.003
			c0,0.001,0,0.002,0,0.002v1.261c0,0.001,0,0.002,0,0.002c0,1.949,1.585,3.533,3.533,3.533c0.552,0,1-0.448,1-1
			c0-0.552-0.448-1-1-1c-0.845,0-1.532-0.687-1.533-1.531c0-0.001,0-0.001,0-0.002v-0.266h4.065c0.552,0,1-0.448,1-1v-1.266
			C77.694,8.536,76.109,6.951,74.161,6.951z M75.694,10.749h-3.065v-0.266c0-0.845,0.688-1.533,1.533-1.533s1.533,0.688,1.533,1.533
			V10.749z"/>
	</g>
	<g>
		<path class="st1" d="M19.756,6.95c-0.624,0-1.202,0.177-1.712,0.462C17.866,7.14,17.573,6.95,17.223,6.95c-0.552,0-1,0.448-1,1
			v7.598c0,0.552,0.448,1,1,1s1-0.448,1-1v-5.065c0-0.845,0.688-1.533,1.533-1.533s1.533,0.688,1.533,1.533v5.065
			c0,0.552,0.448,1,1,1s1-0.448,1-1v-5.065C23.289,8.535,21.704,6.95,19.756,6.95z"/>
		<path class="st1" d="M36.721,6.95c-0.349,0-0.642,0.19-0.821,0.462C35.39,7.126,34.812,6.95,34.188,6.95
			c-1.948,0-3.533,1.585-3.533,3.533c0,0.001,0,0.002,0,0.002v2.527c0,0.001,0,0.002,0,0.002c0,1.948,1.585,3.533,3.533,3.533
			c0.624,0,1.202-0.177,1.711-0.462c0.179,0.272,0.471,0.462,0.821,0.462c0.552,0,1-0.448,1-1V7.95
			C37.721,7.398,37.273,6.95,36.721,6.95z M34.188,14.548c-0.845,0-1.532-0.687-1.533-1.531c0,0,0-0.001,0-0.002v-2.533
			c0,0,0-0.001,0-0.001c0.001-0.844,0.688-1.53,1.532-1.53c0.845,0,1.532,0.688,1.532,1.533v2.532
			C35.721,13.86,35.033,14.548,34.188,14.548z"/>
		<path class="st1" d="M14.806,10.483c0-1.948-1.585-3.533-3.533-3.533s-3.533,1.585-3.533,3.533c0,0.001,0,0.002,0,0.002v2.527
			c0,0.001,0,0.002,0,0.002c0,1.948,1.585,3.533,3.533,3.533s3.533-1.585,3.533-3.533l0-2.53
			C14.806,10.484,14.806,10.483,14.806,10.483z M11.273,14.548c-0.845,0-1.532-0.687-1.533-1.531c0,0,0-0.001,0-0.002v-2.533
			c0,0,0-0.001,0-0.001c0.001-0.844,0.688-1.53,1.532-1.53c0.845,0,1.532,0.687,1.533,1.531c0,0.001,0,0.001,0,0.002l0,2.532
			C12.806,13.86,12.119,14.548,11.273,14.548z"/>
		<path class="st1" d="M45.169,14.1c-0.39-0.391-1.023-0.392-1.415-0.001c-0.29,0.29-0.675,0.449-1.084,0.449
			c-0.845,0-1.532-0.687-1.533-1.531c0-0.001,0-0.001,0-0.002v-2.533c0,0,0-0.001,0-0.001c0.001-0.844,0.688-1.53,1.532-1.53
			c0.409,0,0.794,0.159,1.084,0.449c0.39,0.39,1.023,0.391,1.414-0.001c0.39-0.391,0.39-1.024-0.001-1.414
			c-0.667-0.667-1.554-1.034-2.497-1.034c-1.948,0-3.533,1.585-3.533,3.533c0,0,0,0.002,0,0.002v2.527c0,0.001,0,0.002,0,0.002
			c0,1.949,1.585,3.533,3.533,3.533c0.943,0,1.83-0.367,2.497-1.033C45.558,15.125,45.559,14.491,45.169,14.1z"/>
		<path class="st1" d="M6.031,14.1c-0.39-0.391-1.023-0.392-1.415-0.001c-0.29,0.29-0.675,0.449-1.084,0.449
			c-0.845,0-1.532-0.687-1.533-1.531c0-0.001,0-0.001,0-0.002v-2.533c0,0,0-0.001,0-0.001c0.001-0.844,0.688-1.53,1.532-1.53
			c0.409,0,0.794,0.159,1.084,0.449c0.39,0.39,1.023,0.391,1.414-0.001c0.39-0.391,0.39-1.024-0.001-1.414
			C5.363,7.318,4.476,6.951,3.533,6.951C1.585,6.951,0,8.536,0,10.484c0,0,0,0.002,0,0.002v2.527c0,0.001,0,0.002,0,0.002
			c0,1.949,1.585,3.533,3.533,3.533c0.943,0,1.83-0.367,2.497-1.033C6.42,15.125,6.421,14.491,6.031,14.1z"/>
		<path class="st1" d="M50.411,14.548c-0.845,0-1.532-0.688-1.532-1.533V8.95h1.532c0.552,0,1-0.448,1-1s-0.448-1-1-1h-1.532V2.884
			c0-0.552-0.448-1-1-1s-1,0.448-1,1v10.13c0,1.948,1.584,3.533,3.532,3.533c0.552,0,1-0.448,1-1
			C51.411,14.995,50.963,14.548,50.411,14.548z"/>
		<path class="st1" d="M28.238,14.548c-0.845,0-1.532-0.688-1.532-1.533V8.95h1.532c0.552,0,1-0.448,1-1s-0.448-1-1-1h-1.532V2.884
			c0-0.552-0.448-1-1-1s-1,0.448-1,1v10.13c0,1.948,1.584,3.533,3.532,3.533c0.552,0,1-0.448,1-1
			C29.238,14.995,28.791,14.548,28.238,14.548z"/>
	</g>
</g>
<line class="st2" x1="82.099" y1="8.19" x2="82.099" y2="21.614"/>
<line class="st2" x1="82.099" y1="21.614" x2="85.849" y2="17.864"/>
<line class="st2" x1="78.349" y1="17.864" x2="82.099" y2="21.614"/>
</svg>