<!-- Generator: Adobe Illustrator 21.1.0, SVG Export Plug-In  -->
<svg version="1.1"
	 xmlns="http://www.w3.org/2000/svg" xmlns:xlink="http://www.w3.org/1999/xlink" xmlns:a="http://ns.adobe.com/AdobeSVGViewerExtensions/3.0/"
	 x="0px" y="0px" width="336.38px" height="97.362px" viewBox="0 0 336.38 97.362"
	 style="enable-background:new 0 0 336.38 97.362;" xml:space="preserve">
<style type="text/css">
	.st0{fill:none;}
	.st1{fill:#FFFFFF;}
</style>
<defs>
</defs>
<rect class="st0" width="336.38" height="97.362"/>
<path class="st1" d="M88.667,79.209l-1.9-1.9c0.297-2.305-0.429-4.717-2.196-6.484l-3.283-3.283l21.687-21.687
	c3.307-3.307,3.307-8.687,0-11.994c-3.306-3.306-8.687-3.306-11.994,0l-3.93,3.93c-0.345-1.497-1.09-2.92-2.254-4.084
	c-1.836-1.836-4.311-2.652-6.716-2.45c0.203-2.404-0.613-4.879-2.449-6.715c-1.164-1.164-2.587-1.909-4.084-2.254l3.93-3.93
	c3.307-3.307,3.307-8.687,0-11.994c-3.306-3.306-8.687-3.306-11.994,0L41.751,28.098c-2.886-2.675-6.046-5.041-9.455-7.01
	l-6.328-3.655c-1.994-1.151-4.395-1.152-6.363-0.133l-0.405-0.405c-0.781-0.781-2.047-0.781-2.828,0
	c-0.781,0.781-0.781,2.047,0,2.828l0.405,0.405c-1.018,1.969-1.018,4.37,0.134,6.363l3.656,6.328
	c1.968,3.408,4.335,6.569,7.01,9.455l-0.296,0.296c-10.888,10.888-10.888,28.603,0,39.491s28.604,10.888,39.491,0l0.25-0.25
	l3.283,3.283c1.766,1.766,4.179,2.493,6.484,2.196l1.9,1.9c2.183,2.183,5.734,2.182,7.917,0l2.063-2.063
	C90.85,84.943,90.85,81.392,88.667,79.209z M93.81,36.69c1.747-1.747,4.59-1.747,6.337,0c1.747,1.747,1.747,4.59,0,6.337
	L78.46,64.714l-6.337-6.337l12.675-12.675L93.81,36.69z M75.631,36.536c1.747-1.747,4.59-1.747,6.337,0
	c1.747,1.747,1.747,4.59,0,6.337L69.294,55.548l-4.197-4.197c-0.015-1.193-0.284-2.381-0.798-3.484l8.753-8.753L75.631,36.536z
	 M72.803,27.371c1.747,1.747,1.747,4.59,0,6.337l-2.579,2.579l-8.387,8.387L55.5,38.337L66.466,27.37
	C68.213,25.623,71.056,25.624,72.803,27.371z M72.649,9.192c1.747,1.747,1.747,4.59,0,6.337l-9.012,9.012L52.671,35.508
	l-6.337-6.337L66.313,9.193C68.06,7.446,70.902,7.445,72.649,9.192z M24.03,30.818l-3.656-6.328
	c-0.595-1.029-0.423-2.335,0.418-3.176c0.84-0.84,2.146-1.012,3.175-0.417l6.328,3.655c3.106,1.793,5.989,3.945,8.627,6.374
	l-8.519,8.519C27.975,36.807,25.823,33.923,24.03,30.818z M63.942,79.232c-9.328,9.328-24.506,9.328-33.834,0
	c-9.328-9.328-9.328-24.506,0-33.834L43.506,32l16.288,16.288c1.747,1.747,1.747,4.59,0,6.338c-1.747,1.747-4.59,1.747-6.348-0.011
	l-8.603-8.471c-0.785-0.773-2.047-0.765-2.823,0.017c-0.776,0.782-0.773,2.044,0.006,2.823c4.621,4.621,6.268,11.367,4.298,17.606
	c-0.232,0.736-0.017,1.507,0.494,2.018c0.22,0.22,0.494,0.391,0.811,0.491c1.053,0.332,2.177-0.252,2.509-1.305
	c0.239-0.756,0.428-1.519,0.581-2.284l13.473,13.473L63.942,79.232z M78.444,82.265c-1.464,1.464-3.847,1.465-5.312,0L51.114,60.248
	c-0.043-0.873-0.137-1.742-0.286-2.6c3.321,3.111,8.553,3.047,11.794-0.194c0.505-0.505,0.923-1.061,1.273-1.648l3.817,3.817
	c0.049,0.062,0.093,0.127,0.151,0.185s0.122,0.102,0.185,0.151l13.695,13.695c1.465,1.465,1.464,3.847,0,5.312L78.444,82.265z
	 M83.776,86.361c-0.623,0.623-1.637,0.623-2.26,0l-0.781-0.781c0.184-0.153,0.365-0.313,0.538-0.486l3.3-3.3
	c0.173-0.173,0.333-0.353,0.486-0.538l0.781,0.781c0.623,0.623,0.623,1.637,0,2.26L83.776,86.361z"/>
<g>
	<g>
		<path class="st1" d="M268.49,22.293c-1.553,0-3.005,0.389-4.316,1.026v-8.912c0-1.555-1.26-2.817-2.817-2.817
			s-2.817,1.261-2.817,2.817v32.101c0,1.555,1.26,2.817,2.817,2.817s2.817-1.261,2.817-2.817V32.243
			c0-2.381,1.936-4.317,4.316-4.317c2.382,0,4.318,1.936,4.318,4.317v14.266c0,1.555,1.26,2.817,2.817,2.817
			s2.817-1.261,2.817-2.817V32.243C278.442,26.757,273.978,22.293,268.49,22.293z"/>
		<path class="st1" d="M203.831,22.293c-2.799,0-5.323,1.172-7.132,3.041c-1.81-1.868-4.334-3.041-7.135-3.041
			c-1.757,0-3.385,0.497-4.82,1.3c-0.503-0.765-1.327-1.3-2.312-1.3c-1.557,0-2.817,1.261-2.817,2.817v21.399
			c0,1.555,1.26,2.817,2.817,2.817c1.557,0,2.817-1.261,2.817-2.817V32.243c0-2.381,1.936-4.317,4.316-4.317
			c2.382,0,4.318,1.936,4.318,4.317v14.266c0,1.555,1.26,2.817,2.817,2.817c1.557,0,2.817-1.261,2.817-2.817V32.243
			c0-2.381,1.936-4.317,4.316-4.317c2.382,0,4.318,1.936,4.318,4.317v14.266c0,1.555,1.26,2.817,2.817,2.817
			c1.557,0,2.817-1.261,2.817-2.817V32.243C213.783,26.757,209.318,22.293,203.831,22.293z"/>
		<path class="st1" d="M233.215,22.293c-0.985,0-1.809,0.535-2.312,1.3c-1.434-0.803-3.062-1.3-4.82-1.3
			c-5.487,0-9.951,4.464-9.951,9.95c0,0.005,0.003,0.009,0.003,0.014v7.105c0,0.005-0.003,0.009-0.003,0.014
			c0,5.486,4.464,9.95,9.951,9.95c1.757,0,3.385-0.497,4.82-1.3c0.503,0.765,1.327,1.3,2.312,1.3c1.557,0,2.817-1.261,2.817-2.817
			V25.109C236.031,23.554,234.772,22.293,233.215,22.293z M226.083,43.692c-2.379,0-4.313-1.932-4.318-4.309
			c0-0.003,0.002-0.006,0.002-0.01V32.24c0-0.003-0.002-0.005-0.002-0.008c0.006-2.375,1.939-4.306,4.317-4.306
			c2.379,0,4.316,1.936,4.316,4.317v7.132C230.398,41.755,228.462,43.692,226.083,43.692z"/>
		<path class="st1" d="M290.742,22.293c-5.487,0-9.951,4.464-9.951,9.95c0,0.005,0.003,0.009,0.003,0.014v7.105
			c0,0.005-0.003,0.009-0.003,0.014c0,5.486,4.464,9.95,9.951,9.95c5.484,0,9.949-4.464,9.949-9.95v-7.132
			C300.69,26.757,296.226,22.293,290.742,22.293z M290.742,43.692c-2.379,0-4.313-1.932-4.318-4.309c0-0.003,0.002-0.006,0.002-0.01
			V32.24c0-0.003-0.002-0.005-0.002-0.008c0.006-2.375,1.939-4.306,4.317-4.306c2.379,0,4.316,1.936,4.316,4.317v7.132
			C295.057,41.755,293.121,43.692,290.742,43.692z"/>
		<path class="st1" d="M248.332,27.926c1.152,0,2.236,0.448,3.05,1.262c1.1,1.1,2.883,1.1,3.983,0c1.1-1.1,1.1-2.883,0-3.983
			c-1.879-1.879-4.376-2.913-7.033-2.913c-5.482,0-9.945,4.461-9.948,9.944c0,0.001-0.001,0.002-0.001,0.003v7.133
			c0,5.486,4.464,9.949,9.949,9.949c2.657,0,5.154-1.033,7.033-2.91c1.1-1.099,1.1-2.883,0-3.983c-1.1-1.103-2.883-1.1-3.983-0.003
			c-0.814,0.814-1.898,1.262-3.05,1.262c-2.379,0-4.316-1.936-4.316-4.316v-7.131C244.016,29.862,245.953,27.926,248.332,27.926z"/>
		<path class="st1" d="M312.991,43.692c-2.379,0-4.316-1.936-4.316-4.317V14.407c0-1.555-1.26-2.817-2.817-2.817
			s-2.816,1.261-2.816,2.817v24.968c0,5.486,4.464,9.95,9.949,9.95c1.557,0,2.817-1.261,2.817-2.817
			C315.807,44.953,314.548,43.692,312.991,43.692z"/>
		<path class="st1" d="M328.108,43.692c-2.379,0-4.316-1.936-4.316-4.317V14.407c0-1.555-1.26-2.817-2.817-2.817
			s-2.817,1.261-2.817,2.817v24.968c0,5.486,4.464,9.95,9.949,9.95c1.557,0,2.817-1.261,2.817-2.817
			C330.924,44.953,329.664,43.692,328.108,43.692z"/>
	</g>
	<g>
		<path class="st1" d="M146.007,51.676c-5.487,0-9.951,4.463-9.951,9.949c0,0.005,0.003,0.009,0.003,0.014v7.106
			c0,0.005-0.003,0.009-0.003,0.014c0,5.486,4.464,9.949,9.951,9.949c5.485,0,9.949-4.463,9.949-9.949v-7.133
			C155.956,56.139,151.492,51.676,146.007,51.676z M146.007,73.074c-2.38,0-4.313-1.932-4.318-4.308c0-0.004,0.002-0.006,0.002-0.01
			v-7.132c0-0.003-0.002-0.006-0.002-0.009c0.005-2.374,1.939-4.306,4.317-4.306c2.379,0,4.316,1.936,4.316,4.316v7.133
			C150.323,71.138,148.386,73.074,146.007,73.074z"/>
		<path class="st1" d="M168.256,57.311c1.152,0,2.236,0.448,3.05,1.262c1.1,1.1,2.883,1.1,3.983,0s1.1-2.883,0-3.983
			c-1.879-1.879-4.376-2.913-7.033-2.913c-5.482,0-9.945,4.461-9.948,9.944c0,0.001-0.001,0.002-0.001,0.003v7.133
			c0,5.486,4.464,9.949,9.949,9.949c2.657,0,5.154-1.033,7.033-2.91c1.1-1.099,1.1-2.883,0-3.983c-1.1-1.103-2.883-1.1-3.983-0.003
			c-0.814,0.814-1.898,1.262-3.05,1.262c-2.379,0-4.316-1.936-4.316-4.316v-7.131C163.941,59.247,165.877,57.311,168.256,57.311z"/>
		<path class="st1" d="M130.888,51.683c-1.757,0-3.385,0.497-4.82,1.3c-0.503-0.765-1.327-1.3-2.312-1.3
			c-1.554,0-2.817,1.261-2.817,2.817l-0.003,21.391c0,1.555,1.26,2.817,2.817,2.817c1.554,0,2.817-1.261,2.817-2.817l0.002-14.253
			c0-0.002,0.001-0.003,0.001-0.004c0-2.381,1.936-4.317,4.316-4.317c1.557,0,2.817-1.261,2.817-2.817
			S132.444,51.683,130.888,51.683z"/>
		<path class="st1" d="M185.549,65.193l9.767-8.584c1.169-1.026,1.282-2.806,0.256-3.974s-2.808-1.282-3.974-0.256l-7.498,6.59
			v-4.476c0-1.555-1.26-2.817-2.817-2.817s-2.817,1.261-2.817,2.817v21.399c0,1.555,1.26,2.817,2.817,2.817s2.817-1.261,2.817-2.817
			v-4.474l7.498,6.589c0.536,0.47,1.199,0.701,1.859,0.701c0.781,0,1.56-0.323,2.115-0.957c1.029-1.169,0.913-2.949-0.256-3.974
			L185.549,65.193z"/>
		<path class="st1" d="M207.94,62.619c-2.442-1.095-3.683-2.029-3.683-2.778c0-1.397,1.136-2.533,2.53-2.533
			c1.155,0.001,2.239,0.45,3.053,1.264c1.1,1.097,2.883,1.1,3.983-0.003c1.1-1.1,1.1-2.884,0-3.983
			c-1.879-1.876-4.376-2.91-7.033-2.911c-4.503,0-8.166,3.664-8.166,8.166c0,4.78,4.915,6.979,7.017,7.919
			c2.442,1.095,3.68,2.03,3.68,2.779c0,1.396-1.136,2.533-2.53,2.535c-1.152,0-2.236-0.448-3.05-1.262
			c-1.1-1.097-2.883-1.1-3.983,0.003c-1.1,1.1-1.1,2.884,0,3.983c1.879,1.874,4.371,2.907,7.019,2.907c0.006,0,0.008,0,0.014,0
			c4.503,0,8.164-3.662,8.164-8.165C214.954,65.762,210.042,63.56,207.94,62.619z"/>
	</g>
	<path class="st1" d="M145.152,22.293c-2.799,0-5.323,1.172-7.132,3.041c-1.81-1.868-4.334-3.041-7.135-3.041
		c-1.757,0-3.385,0.497-4.82,1.3c-0.503-0.765-1.327-1.3-2.312-1.3c-1.557,0-2.817,1.261-2.817,2.817v21.399
		c0,1.555,1.26,2.817,2.817,2.817s2.817-1.261,2.817-2.817V32.243c0-2.381,1.936-4.317,4.316-4.317c2.382,0,4.318,1.936,4.318,4.317
		v14.266c0,1.555,1.26,2.817,2.817,2.817c1.557,0,2.817-1.261,2.817-2.817V32.243c0-2.381,1.936-4.317,4.316-4.317
		c2.382,0,4.318,1.936,4.318,4.317v14.266c0,1.555,1.26,2.817,2.817,2.817c1.557,0,2.817-1.261,2.817-2.817V32.243
		C155.103,26.757,150.639,22.293,145.152,22.293z"/>
	<path class="st1" d="M167.403,22.301c-1.757,0-3.385,0.497-4.82,1.3c-0.503-0.765-1.327-1.3-2.312-1.3
		c-1.554,0-2.817,1.261-2.817,2.817l-0.003,21.391c0,1.555,1.26,2.817,2.817,2.817c1.554,0,2.817-1.261,2.817-2.817l0.002-14.253
		c0-0.002,0.001-0.003,0.001-0.004c0-2.381,1.936-4.317,4.316-4.317c1.557,0,2.817-1.261,2.817-2.817S168.96,22.301,167.403,22.301z
		"/>
</g>
</svg>