<!-- Generator: Adobe Illustrator 21.1.0, SVG Export Plug-In  -->
<svg version="1.1"
	 xmlns="http://www.w3.org/2000/svg" xmlns:xlink="http://www.w3.org/1999/xlink" xmlns:a="http://ns.adobe.com/AdobeSVGViewerExtensions/3.0/"
	 x="0px" y="0px" width="114.035px" height="28.362px" viewBox="0 0 114.035 28.362"
	 style="enable-background:new 0 0 114.035 28.362;" xml:space="preserve">
<style type="text/css">
	.st0{fill:none;}
	.st1{fill:#231F20;}
</style>
<defs>
</defs>
<rect class="st0" width="114.035" height="28.362"/>
<g>
	<g>
		<path class="st1" d="M8.656,6.95c-0.994,0-1.89,0.416-2.533,1.08C5.481,7.366,4.585,6.95,3.59,6.95
			c-0.624,0-1.202,0.177-1.711,0.462C1.7,7.14,1.408,6.95,1.058,6.95c-0.552,0-1,0.448-1,1v7.598c0,0.552,0.448,1,1,1s1-0.448,1-1
			v-5.065c0-0.845,0.688-1.533,1.532-1.533c0.845,0,1.533,0.688,1.533,1.533v5.065c0,0.552,0.448,1,1,1s1-0.448,1-1v-5.065
			c0-0.845,0.688-1.533,1.533-1.533s1.533,0.688,1.533,1.533v5.065c0,0.552,0.448,1,1,1s1-0.448,1-1v-5.065
			C12.189,8.535,10.604,6.95,8.656,6.95z"/>
		<path class="st1" d="M19.671,6.95c-0.552,0-1,0.448-1,1l0,5.064c0,0,0,0.001,0,0.001c0,0.845-0.688,1.533-1.532,1.533
			c-0.845,0-1.533-0.688-1.533-1.533V7.953c0-0.552-0.448-1-1-1s-1,0.448-1,1v5.062c0,1.948,1.585,3.533,3.533,3.533
			c0.551,0,1.067-0.138,1.532-0.364l0,1.894c0,0.845-0.688,1.533-1.532,1.533c-0.409,0-0.794-0.159-1.084-0.449
			c-0.39-0.39-1.023-0.391-1.414,0.001c-0.39,0.391-0.39,1.024,0.001,1.414c0.667,0.667,1.554,1.034,2.497,1.034
			c1.948,0,3.532-1.585,3.532-3.533l0-10.127C20.671,7.398,20.224,6.95,19.671,6.95z"/>
	</g>
	<g>
		<path class="st1" d="M84.07,7.001c-0.526-0.177-1.091,0.109-1.265,0.632l-1.584,4.751l-1.584-4.752
			c-0.008-0.023-0.026-0.039-0.035-0.061c-0.026-0.062-0.061-0.117-0.099-0.173c-0.037-0.054-0.071-0.107-0.117-0.152
			c-0.041-0.041-0.089-0.072-0.137-0.106c-0.061-0.042-0.12-0.08-0.189-0.108c-0.02-0.008-0.035-0.025-0.056-0.032
			c-0.036-0.012-0.071-0.006-0.107-0.013c-0.07-0.016-0.139-0.027-0.212-0.026c-0.069,0-0.132,0.011-0.198,0.025
			C78.448,6.993,78.41,6.987,78.371,7c-0.023,0.008-0.038,0.026-0.06,0.035c-0.064,0.027-0.12,0.063-0.178,0.102
			c-0.052,0.036-0.102,0.069-0.146,0.113c-0.043,0.043-0.076,0.093-0.111,0.144c-0.04,0.058-0.076,0.115-0.103,0.18
			c-0.009,0.022-0.027,0.037-0.034,0.06l-1.583,4.751l-1.584-4.752C74.397,7.109,73.833,6.824,73.306,7
			c-0.524,0.175-0.807,0.741-0.632,1.265l2.533,7.598c0.009,0.026,0.027,0.046,0.037,0.072c0.018,0.042,0.039,0.08,0.062,0.12
			c0.04,0.067,0.086,0.126,0.139,0.181c0.029,0.03,0.056,0.06,0.089,0.087c0.081,0.065,0.171,0.117,0.268,0.154
			c0.014,0.005,0.023,0.016,0.037,0.021c0.003,0.001,0.005,0,0.008,0.001c0.05,0.016,0.105,0.018,0.158,0.026
			c0.05,0.008,0.101,0.025,0.151,0.025c0.108,0,0.214-0.019,0.314-0.052c0.001,0,0.002,0,0.002,0
			c0.004-0.001,0.006-0.005,0.01-0.006c0.11-0.038,0.209-0.098,0.299-0.172c0.029-0.023,0.052-0.05,0.078-0.076
			c0.057-0.058,0.106-0.121,0.148-0.193c0.022-0.037,0.041-0.072,0.058-0.111c0.011-0.026,0.029-0.047,0.039-0.074l1.584-4.752
			l1.584,4.751c0.009,0.026,0.027,0.046,0.037,0.072c0.018,0.042,0.039,0.08,0.062,0.12c0.04,0.067,0.086,0.126,0.139,0.181
			c0.029,0.03,0.056,0.06,0.089,0.087c0.081,0.065,0.171,0.117,0.268,0.154c0.014,0.005,0.023,0.016,0.037,0.021
			c0.003,0.001,0.005,0,0.008,0.001c0.05,0.016,0.105,0.018,0.158,0.026c0.05,0.008,0.101,0.025,0.151,0.025
			c0.108,0,0.214-0.019,0.314-0.052c0.001,0,0.002,0,0.002,0c0.004-0.001,0.006-0.005,0.01-0.006
			c0.11-0.038,0.209-0.098,0.299-0.172c0.029-0.023,0.052-0.05,0.078-0.076c0.057-0.058,0.106-0.121,0.148-0.193
			c0.022-0.037,0.041-0.072,0.058-0.111c0.011-0.026,0.029-0.047,0.039-0.074l2.533-7.598C84.877,7.742,84.593,7.175,84.07,7.001z"
			/>
		<path class="st1" d="M93.236,10.483c0-1.948-1.585-3.533-3.533-3.533s-3.533,1.585-3.533,3.533c0,0.001,0,0.002,0,0.002v2.527
			c0,0.001,0,0.002,0,0.002c0,1.948,1.585,3.533,3.533,3.533s3.533-1.585,3.533-3.533l0-2.53
			C93.236,10.484,93.236,10.483,93.236,10.483z M89.704,14.548c-0.845,0-1.532-0.687-1.533-1.531c0-0.001,0-0.001,0-0.002v-2.533
			c0,0,0-0.001,0-0.001c0.001-0.844,0.688-1.53,1.532-1.53c0.845,0,1.532,0.687,1.533,1.531c0,0.001,0,0.001,0,0.002l0,2.532
			C91.236,13.86,90.549,14.548,89.704,14.548z"/>
		<path class="st1" d="M100.684,7.986c-0.667-0.667-1.554-1.034-2.497-1.034c-0.624,0-1.203,0.177-1.712,0.462
			c-0.179-0.272-0.472-0.462-0.821-0.462c-0.552,0-1,0.448-1,1l0,7.595c0,0.552,0.448,1,1,1s1-0.448,1-1l0-5.059
			c0-0.001,0.001-0.002,0.001-0.003c0-0.845,0.688-1.533,1.533-1.533c0.409,0,0.793,0.159,1.083,0.449
			c0.39,0.39,1.023,0.391,1.414-0.001C101.075,9.009,101.075,8.376,100.684,7.986z"/>
		<path class="st1" d="M105.054,11.749l3.973-3.001c0.441-0.333,0.528-0.96,0.195-1.4c-0.332-0.44-0.959-0.528-1.4-0.195
			l-3.427,2.589V2.884c0-0.552-0.448-1-1-1s-1,0.448-1,1v12.663c0,0.552,0.448,1,1,1s1-0.448,1-1v-1.791l3.427,2.589
			c0.18,0.136,0.392,0.202,0.602,0.202c0.303,0,0.603-0.137,0.799-0.397c0.333-0.44,0.246-1.068-0.195-1.4L105.054,11.749z"/>
	</g>
	<g>
		<path class="st1" d="M38.355,6.95c-0.349,0-0.642,0.19-0.821,0.462c-0.509-0.285-1.087-0.462-1.711-0.462
			c-1.948,0-3.533,1.585-3.533,3.533c0,0.001,0,0.002,0,0.002v2.527c0,0.001,0,0.002,0,0.002c0,1.948,1.585,3.533,3.533,3.533
			c0.624,0,1.202-0.177,1.711-0.462c0.179,0.272,0.471,0.462,0.821,0.462c0.552,0,1-0.448,1-1V7.95
			C39.355,7.398,38.907,6.95,38.355,6.95z M35.823,14.548c-0.845,0-1.532-0.687-1.533-1.531c0-0.001,0-0.001,0-0.002v-2.533
			c0,0,0-0.001,0-0.001c0.001-0.844,0.688-1.53,1.532-1.53c0.845,0,1.532,0.688,1.532,1.533v2.532
			C37.355,13.86,36.668,14.548,35.823,14.548z"/>
		<path class="st1" d="M29.873,14.548c-0.845,0-1.532-0.688-1.532-1.533V2.884c0-0.552-0.448-1-1-1s-1,0.448-1,1v10.13
			c0,1.948,1.584,3.533,3.532,3.533c0.552,0,1-0.448,1-1C30.873,14.995,30.425,14.548,29.873,14.548z"/>
		<path class="st1" d="M50.255,6.951c-1.947,0-3.531,1.584-3.533,3.531c0,0,0,0.001,0,0.001v1.264c0,0.001,0,0.002,0,0.003
			c0,0.001,0,0.002,0,0.002v1.261c0,0.001,0,0.002,0,0.002c0,1.948,1.585,3.532,3.533,3.532c0.552,0,1-0.448,1-1
			c0-0.552-0.448-1-1-1c-0.845,0-1.532-0.687-1.533-1.531c0-0.001,0-0.001,0-0.002v-0.266h4.065c0.552,0,1-0.448,1-1v-1.266
			C53.788,8.536,52.203,6.951,50.255,6.951z M51.788,10.749h-3.065v-0.266c0-0.845,0.688-1.533,1.533-1.533s1.533,0.688,1.533,1.533
			V10.749z"/>
		<path class="st1" d="M65.953,14.548c-0.845,0-1.532-0.688-1.532-1.533V8.95h1.532c0.552,0,1-0.448,1-1s-0.448-1-1-1h-1.532V2.884
			c0-0.552-0.448-1-1-1s-1,0.448-1,1v10.13c0,1.948,1.584,3.533,3.532,3.533c0.552,0,1-0.448,1-1
			C66.953,14.995,66.505,14.548,65.953,14.548z"/>
		<path class="st1" d="M44.305,14.548c-0.845,0-1.532-0.688-1.532-1.533V8.95h1.532c0.552,0,1-0.448,1-1s-0.448-1-1-1h-1.532V2.884
			c0-0.552-0.448-1-1-1s-1,0.448-1,1v10.13c0,1.948,1.584,3.533,3.532,3.533c0.552,0,1-0.448,1-1
			C45.305,14.995,44.857,14.548,44.305,14.548z"/>
		<g>
			<path class="st1" d="M58.1,16.548c-0.94,0-1.826-0.367-2.492-1.033c-0.391-0.391-0.391-1.023,0-1.414s1.023-0.391,1.414,0
				c0.289,0.289,0.674,0.448,1.083,0.448c0.495,0,0.899-0.404,0.899-0.9c0-0.266-0.44-0.598-1.307-0.986
				c-0.747-0.334-2.491-1.116-2.491-2.812c0-1.599,1.301-2.899,2.899-2.899c0.943,0,1.83,0.367,2.497,1.034
				c0.391,0.391,0.391,1.023,0,1.414s-1.023,0.391-1.414,0c-0.289-0.289-0.674-0.448-1.083-0.448c-0.496,0-0.899,0.403-0.899,0.899
				c0,0.266,0.44,0.598,1.307,0.986c0.747,0.334,2.491,1.116,2.491,2.812c0,1.599-1.3,2.899-2.899,2.899
				C58.103,16.548,58.101,16.548,58.1,16.548z"/>
		</g>
	</g>
</g>
</svg>