<!-- Generator: Adobe Illustrator 21.1.0, SVG Export Plug-In  -->
<svg version="1.1"
	 xmlns="http://www.w3.org/2000/svg" xmlns:xlink="http://www.w3.org/1999/xlink" xmlns:a="http://ns.adobe.com/AdobeSVGViewerExtensions/3.0/"
	 x="0px" y="0px" width="49.851px" height="19.73px" viewBox="0 0 49.851 19.73" style="enable-background:new 0 0 49.851 19.73;"
	 xml:space="preserve">
<style type="text/css">
	.st0{fill:#231F20;}
	.st1{fill:none;stroke:#231F20;stroke-width:2;stroke-linecap:round;stroke-miterlimit:10;}
</style>
<defs>
</defs>
<path class="st0" d="M7.065,8.603c0-0.001,0-0.002,0-0.002c0-1.948-1.585-3.533-3.533-3.533c-0.624,0-1.202,0.177-1.712,0.462
	C1.642,5.258,1.349,5.068,1,5.068c-0.552,0-1,0.448-1,1V18.73c0,0.552,0.448,1,1,1s1-0.448,1-1v-4.429
	c0.466,0.226,0.981,0.365,1.533,0.365c1.948,0,3.533-1.585,3.533-3.533c0-0.001,0-0.002,0-0.002V8.603z M3.533,12.666
	C2.688,12.666,2,11.978,2,11.133V8.601c0-0.845,0.688-1.533,1.533-1.533c0.845,0,1.532,0.687,1.533,1.532c0,0.001,0,0.001,0,0.002
	v2.532l0,0.001C5.064,11.979,4.377,12.666,3.533,12.666z"/>
<path class="st0" d="M23.289,8.598c0-1.948-1.585-3.533-3.533-3.533s-3.533,1.585-3.533,3.533c0,0.001,0,0.002,0,0.002v2.527
	c0,0,0,0.002,0,0.002c0,1.948,1.585,3.533,3.533,3.533s3.533-1.585,3.533-3.533l0-2.53C23.289,8.6,23.289,8.599,23.289,8.598z
	 M19.757,12.663c-0.845,0-1.532-0.687-1.533-1.531l0-0.002V8.597c0,0,0-0.001,0-0.001c0.001-0.844,0.688-1.531,1.532-1.531
	c0.845,0,1.532,0.687,1.533,1.531c0,0.001,0,0.001,0,0.002l0,2.532C21.289,11.976,20.602,12.663,19.757,12.663z"/>
<path class="st0" d="M31.922,5.066c-1.947,0-3.531,1.584-3.533,3.531l0,0.001v1.264c0,0.001,0,0.002,0,0.003
	c0,0.001,0,0.002,0,0.002v1.261c0,0.001,0,0.002,0,0.002c0,1.948,1.585,3.532,3.533,3.532c0.552,0,1-0.448,1-1s-0.448-1-1-1
	c-0.845,0-1.532-0.687-1.533-1.531l0-0.002v-0.266h4.065c0.552,0,1-0.448,1-1V8.599C35.455,6.651,33.87,5.066,31.922,5.066z
	 M33.455,8.865h-3.065V8.599c0-0.845,0.688-1.533,1.533-1.533c0.845,0,1.533,0.688,1.533,1.533V8.865z"/>
<path class="st0" d="M14.513,6.102c-0.667-0.667-1.554-1.034-2.497-1.034c-0.624,0-1.203,0.177-1.712,0.462
	c-0.179-0.272-0.472-0.462-0.821-0.462c-0.552,0-1,0.448-1,1l0,7.595c0,0.552,0.448,1,1,1s1-0.448,1-1l0-5.059
	c0-0.001,0.001-0.002,0.001-0.003c0-0.845,0.688-1.533,1.533-1.533c0.409,0,0.793,0.159,1.083,0.449
	c0.39,0.39,1.023,0.391,1.414-0.001C14.904,7.125,14.904,6.492,14.513,6.102z"/>
<g>
	<path class="st0" d="M23.439,17.73c0.845,0,1.532-0.688,1.532-1.533V6.067c0-0.552,0.448-1,1-1s1,0.448,1,1v10.13
		c0,1.948-1.584,3.533-3.532,3.533c-0.552,0-1-0.448-1-1S22.887,17.73,23.439,17.73z"/>
	<g>
		<g>
			<g>
				<path class="st0" d="M25.976,2.003h-0.01c-0.552,0-1-0.448-1-1s0.448-1,1-1s1.005,0.448,1.005,1S26.529,2.003,25.976,2.003z"/>
			</g>
		</g>
		<g>
			<path class="st1" d="M25.971,16.199"/>
		</g>
	</g>
</g>
<path class="st0" d="M39.531,9.864l3.973-3.001c0.441-0.333,0.528-0.96,0.195-1.4c-0.332-0.44-0.959-0.528-1.4-0.195l-3.427,2.589V1
	c0-0.552-0.448-1-1-1s-1,0.448-1,1v12.663c0,0.552,0.448,1,1,1s1-0.448,1-1v-1.791l3.427,2.589c0.18,0.136,0.392,0.202,0.602,0.202
	c0.303,0,0.603-0.137,0.799-0.397c0.333-0.44,0.246-1.068-0.195-1.4L39.531,9.864z"/>
<path class="st0" d="M48.851,12.663c-0.845,0-1.532-0.688-1.532-1.533V7.065h1.532c0.552,0,1-0.448,1-1s-0.448-1-1-1h-1.532V1
	c0-0.552-0.448-1-1-1s-1,0.448-1,1v10.13c0,1.948,1.584,3.533,3.532,3.533c0.552,0,1-0.448,1-1S49.404,12.663,48.851,12.663z"/>
</svg>